<svg version="1.1" viewBox="0.0 0.0 1021.0 632.0" fill="none" stroke="none" stroke-linecap="square" stroke-miterlimit="10" width="1021" height="632" xmlns:xlink="http://www.w3.org/1999/xlink" xmlns="http://www.w3.org/2000/svg"><path fill="#ffffff" d="M0 0L1021.0 0L1021.0 632.0L0 632.0L0 0Z" fill-rule="nonzero"/><path stroke="#333333" stroke-width="1.0" stroke-linecap="butt" d="M97.5 548.5L989.5 548.5" fill-rule="nonzero"/><path stroke="#cccccc" stroke-width="1.0" stroke-linecap="butt" d="M97.5 446.5L989.5 446.5" fill-rule="nonzero"/><path stroke="#cccccc" stroke-width="1.0" stroke-linecap="butt" d="M97.5 345.5L989.5 345.5" fill-rule="nonzero"/><path stroke="#cccccc" stroke-width="1.0" stroke-linecap="butt" d="M97.5 244.5L989.5 244.5" fill-rule="nonzero"/><path stroke="#cccccc" stroke-width="1.0" stroke-linecap="butt" d="M97.5 142.5L989.5 142.5" fill-rule="nonzero"/><clipPath id="id_0"><path d="M97.6 142.73334L989.4 142.73334L989.4 548.4L97.6 548.4L97.6 142.73334Z" clip-rule="nonzero"/></clipPath><path stroke="#000000" stroke-width="2.0" stroke-linecap="butt" stroke-opacity="0.0" clip-path="url(#id_0)" d="M235.0 548.0L170.0 548.0L170.0 429.0C170.0 427.89542 170.89543 427.0 172.0 427.0L233.0 427.0C234.10457 427.0 235.0 427.89542 235.0 429.0Z" fill-rule="nonzero"/><path fill="#4285f4" clip-path="url(#id_0)" d="M235.0 548.0L170.0 548.0L170.0 429.0C170.0 427.89542 170.89543 427.0 172.0 427.0L233.0 427.0C234.10457 427.0 235.0 427.89542 235.0 429.0Z" fill-rule="nonzero"/><path stroke="#000000" stroke-width="2.0" stroke-linecap="butt" stroke-opacity="0.0" clip-path="url(#id_0)" d="M440.0 548.0L375.0 548.0L375.0 307.0C375.0 305.89542 375.89542 305.0 377.0 305.0L438.0 305.0C439.10458 305.0 440.0 305.89542 440.0 307.0Z" fill-rule="nonzero"/><path fill="#4285f4" clip-path="url(#id_0)" d="M440.0 548.0L375.0 548.0L375.0 307.0C375.0 305.89542 375.89542 305.0 377.0 305.0L438.0 305.0C439.10458 305.0 440.0 305.89542 440.0 307.0Z" fill-rule="nonzero"/><path stroke="#000000" stroke-width="2.0" stroke-linecap="butt" stroke-opacity="0.0" clip-path="url(#id_0)" d="M645.0 548.0L580.0 548.0L580.0 218.0C580.0 216.89543 580.89545 216.0 582.0 216.0L643.0 216.0C644.10455 216.0 645.0 216.89543 645.0 218.0Z" fill-rule="nonzero"/><path fill="#4285f4" clip-path="url(#id_0)" d="M645.0 548.0L580.0 548.0L580.0 218.0C580.0 216.89543 580.89545 216.0 582.0 216.0L643.0 216.0C644.10455 216.0 645.0 216.89543 645.0 218.0Z" fill-rule="nonzero"/><path stroke="#000000" stroke-width="2.0" stroke-linecap="butt" stroke-opacity="0.0" clip-path="url(#id_0)" d="M850.0 548.0L785.0 548.0L785.0 146.0C785.0 144.89543 785.89545 144.0 787.0 144.0L848.0 144.0C849.10455 144.0 850.0 144.89543 850.0 146.0Z" fill-rule="nonzero"/><path fill="#4285f4" clip-path="url(#id_0)" d="M850.0 548.0L785.0 548.0L785.0 146.0C785.0 144.89543 785.89545 144.0 787.0 144.0L848.0 144.0C849.10455 144.0 850.0 144.89543 850.0 146.0Z" fill-rule="nonzero"/><path stroke="#000000" stroke-width="2.0" stroke-linecap="butt" stroke-opacity="0.0" clip-path="url(#id_0)" d="M302.0 548.0L237.0 548.0L237.0 431.0C237.0 429.89542 237.89543 429.0 239.0 429.0L300.0 429.0C301.10458 429.0 302.0 429.89542 302.0 431.0Z" fill-rule="nonzero"/><path fill="#ea4335" clip-path="url(#id_0)" d="M302.0 548.0L237.0 548.0L237.0 431.0C237.0 429.89542 237.89543 429.0 239.0 429.0L300.0 429.0C301.10458 429.0 302.0 429.89542 302.0 431.0Z" fill-rule="nonzero"/><path stroke="#000000" stroke-width="2.0" stroke-linecap="butt" stroke-opacity="0.0" clip-path="url(#id_0)" d="M507.0 548.0L442.0 548.0L442.0 430.0C442.0 428.89542 442.89542 428.0 444.0 428.0L505.0 428.0C506.10458 428.0 507.0 428.89542 507.0 430.0Z" fill-rule="nonzero"/><path fill="#ea4335" clip-path="url(#id_0)" d="M507.0 548.0L442.0 548.0L442.0 430.0C442.0 428.89542 442.89542 428.0 444.0 428.0L505.0 428.0C506.10458 428.0 507.0 428.89542 507.0 430.0Z" fill-rule="nonzero"/><path stroke="#000000" stroke-width="2.0" stroke-linecap="butt" stroke-opacity="0.0" clip-path="url(#id_0)" d="M712.0 548.0L647.0 548.0L647.0 433.0C647.0 431.89542 647.89545 431.0 649.0 431.0L710.0 431.0C711.10455 431.0 712.0 431.89542 712.0 433.0Z" fill-rule="nonzero"/><path fill="#ea4335" clip-path="url(#id_0)" d="M712.0 548.0L647.0 548.0L647.0 433.0C647.0 431.89542 647.89545 431.0 649.0 431.0L710.0 431.0C711.10455 431.0 712.0 431.89542 712.0 433.0Z" fill-rule="nonzero"/><path stroke="#000000" stroke-width="2.0" stroke-linecap="butt" stroke-opacity="0.0" clip-path="url(#id_0)" d="M917.0 548.0L852.0 548.0L852.0 430.0C852.0 428.89542 852.89545 428.0 854.0 428.0L915.0 428.0C916.10455 428.0 917.0 428.89542 917.0 430.0Z" fill-rule="nonzero"/><path fill="#ea4335" clip-path="url(#id_0)" d="M917.0 548.0L852.0 548.0L852.0 430.0C852.0 428.89542 852.89545 428.0 854.0 428.0L915.0 428.0C916.10455 428.0 917.0 428.89542 917.0 430.0Z" fill-rule="nonzero"/><path fill="#000000" d="M540.09375 593.3844L540.8125 593.3844Q541.09375 592.9938 541.28125 592.3688Q541.46875 591.65 541.46875 590.7438L541.46875 589.5875Q541.46875 589.0719 541.1094 588.79065Q540.7656 588.5094 540.1719 588.5094L533.71875 588.5094Q533.40625 588.5094 533.40625 588.79065Q533.40625 589.10315 533.71875 589.10315L540.1875 589.10315Q540.4375 589.10315 540.59375 589.2438Q540.7656 589.3844 540.7656 589.6344L540.7656 590.8063Q540.7656 591.6813 540.59375 592.29065Q540.4375 592.9 540.09375 593.3844ZM542.0469 593.275L532.9375 593.275Q532.6094 593.275 532.6094 593.5719Q532.625 593.8688 532.9375 593.8688L537.1719 593.8688L537.1719 597.65Q537.1719 597.8063 537.28125 597.91565Q537.375 597.9938 537.5156 597.9938Q537.6406 597.9938 537.7344 597.91565Q537.8594 597.8063 537.8594 597.65L537.8594 593.8688L542.0625 593.8688Q542.21875 593.8688 542.3125 593.775Q542.40625 593.6813 542.40625 593.5719Q542.40625 593.4469 542.3125 593.35315Q542.21875 593.275 542.0469 593.275ZM548.7656 588.5563L545.25 588.5563Q544.9219 588.5563 544.9375 588.8375Q544.9375 589.15 545.2656 589.15L548.78125 589.15Q549.03125 589.15 549.15625 589.2594Q549.2969 589.3844 549.2969 589.6344L549.2969 590.1969Q549.2969 591.5563 548.2031 592.4625Q547.0469 593.4 545.0781 593.54065Q544.8906 593.54065 544.7969 593.6344Q544.7031 593.72815 544.71875 593.85315Q544.7344 593.97815 544.8281 594.0563Q544.9375 594.1344 545.1094 594.1344Q547.28125 593.9938 548.6406 592.8688Q549.96875 591.79065 549.96875 590.2125L549.96875 589.5875Q549.96875 589.0875 549.6406 588.8219Q549.3125 588.5563 548.7656 588.5563ZM552.9375 591.72815L552.9375 588.5094Q552.9375 588.1813 552.5781 588.1813Q552.25 588.1813 552.25 588.5094L552.25 594.9938Q552.25 595.16565 552.34375 595.2594Q552.4375 595.35315 552.5781 595.35315Q552.71875 595.35315 552.8125 595.2594Q552.9375 595.16565 552.9375 594.9938L552.9375 592.3219L554.21875 592.3219Q554.5156 592.3219 554.5156 592.025Q554.5156 591.72815 554.21875 591.72815L552.9375 591.72815ZM546.3906 595.10315Q546.3906 594.9 546.28125 594.79065Q546.1875 594.6969 546.0469 594.6969Q545.90625 594.6969 545.8125 594.79065Q545.7031 594.9 545.7031 595.10315L545.7031 596.65Q545.7031 597.1344 546.0 597.4313Q546.3125 597.7125 546.8594 597.7125L552.9375 597.7125Q553.2344 597.7125 553.2344 597.41565Q553.2344 597.1188 552.9375 597.1188L546.9531 597.1188Q546.625 597.1188 546.5156 597.0094Q546.3906 596.9 546.3906 596.5719L546.3906 595.10315Z" fill-rule="nonzero"/><path fill="#000000" d="M42.600025 360.26978L36.381275 360.26978L36.381275 359.33228L37.256275 359.33228Q36.787525 359.0354 36.5219 358.55103Q36.24065 358.06665 36.24065 357.44165Q36.24065 356.75415 36.5219 356.31665Q36.80315 355.86353 37.318775 355.69165Q36.24065 354.94165 36.24065 353.76978Q36.24065 352.83228 36.756275 352.3479Q37.256275 351.8479 38.3344 351.8479L42.600025 351.8479L42.600025 352.89478L38.67815 352.89478Q38.05315 352.89478 37.7719 353.00415Q37.49065 353.0979 37.318775 353.36353Q37.1469 353.62915 37.1469 354.00415Q37.1469 354.6604 37.5844 355.0979Q38.0219 355.51978 38.99065 355.51978L42.600025 355.51978L42.600025 356.58228L38.55315 356.58228Q37.850025 356.58228 37.506275 356.8479Q37.1469 357.0979 37.1469 357.67603Q37.1469 358.12915 37.381275 358.50415Q37.61565 358.87915 38.068775 359.05103Q38.5219 359.2229 39.36565 359.2229L42.600025 359.2229L42.600025 360.26978ZM40.74065 349.69165L40.5844 348.6604Q41.2094 348.56665 41.537525 348.17603Q41.86565 347.76978 41.86565 347.0354Q41.86565 346.31665 41.5844 345.9729Q41.287525 345.61353 40.881275 345.61353Q40.5219 345.61353 40.318775 345.92603Q40.17815 346.14478 39.9594 347.00415Q39.662525 348.1604 39.4594 348.61353Q39.24065 349.05103 38.86565 349.2854Q38.49065 349.51978 38.0219 349.51978Q37.61565 349.51978 37.256275 349.33228Q36.8969 349.14478 36.662525 348.81665Q36.49065 348.56665 36.36565 348.14478Q36.24065 347.7229 36.24065 347.2229Q36.24065 346.50415 36.4594 345.95728Q36.662525 345.39478 37.0219 345.12915Q37.381275 344.86353 37.975025 344.76978L38.11565 345.80103Q37.6469 345.86353 37.381275 346.20728Q37.100025 346.5354 37.100025 347.1604Q37.100025 347.87915 37.350025 348.19165Q37.5844 348.50415 37.912525 348.50415Q38.11565 348.50415 38.2719 348.37915Q38.443775 348.23853 38.55315 347.9729Q38.61565 347.81665 38.818775 347.0354Q39.131275 345.9104 39.318775 345.4729Q39.506275 345.0354 39.86565 344.7854Q40.225025 344.5354 40.7719 344.5354Q41.30315 344.5354 41.7719 344.8479Q42.225025 345.14478 42.49065 345.7229Q42.74065 346.30103 42.74065 347.0354Q42.74065 348.25415 42.24065 348.89478Q41.725025 349.51978 40.74065 349.69165Z" fill-rule="nonzero"/><path fill="#000000" d="M85.1 548.16565Q85.1 546.6344 85.4125 545.7125Q85.725 544.775 86.33437 544.275Q86.95937 543.775 87.89687 543.775Q88.58437 543.775 89.1 544.0563Q89.63125 544.3375 89.975 544.8688Q90.31875 545.3844 90.50625 546.1344Q90.69375 546.8844 90.69375 548.16565Q90.69375 549.6813 90.38125 550.60315Q90.08437 551.525 89.45937 552.04065Q88.85 552.54065 87.89687 552.54065Q86.6625 552.54065 85.94375 551.65Q85.1 550.5875 85.1 548.16565ZM86.17812 548.16565Q86.17812 550.275 86.67812 550.97815Q87.17812 551.6813 87.89687 551.6813Q88.63125 551.6813 89.11562 550.97815Q89.61562 550.275 89.61562 548.16565Q89.61562 546.04065 89.11562 545.35315Q88.63125 544.65 87.88125 544.65Q87.1625 544.65 86.725 545.2594Q86.17812 546.04065 86.17812 548.16565Z" fill-rule="nonzero"/><path fill="#000000" d="M71.1 448.73334L72.20937 448.6396Q72.33437 449.4521 72.77187 449.85834Q73.225 450.2646 73.86562 450.2646Q74.61562 450.2646 75.14687 449.68646Q75.67812 449.10834 75.67812 448.17084Q75.67812 447.2646 75.1625 446.74896Q74.6625 446.2177 73.83437 446.2177Q73.33437 446.2177 72.9125 446.4521Q72.50625 446.68646 72.27187 447.04584L71.2875 446.92084L72.11562 442.5146L76.39687 442.5146L76.39687 443.5146L72.95937 443.5146L72.50625 445.8271Q73.27187 445.2802 74.11562 445.2802Q75.24062 445.2802 76.00625 446.06146Q76.7875 446.8427 76.7875 448.0771Q76.7875 449.23334 76.11562 450.0927Q75.2875 451.12396 73.86562 451.12396Q72.69375 451.12396 71.94375 450.4677Q71.20937 449.81146 71.1 448.73334ZM78.1 446.74896Q78.1 445.2177 78.4125 444.29584Q78.725 443.35834 79.33437 442.85834Q79.95937 442.35834 80.89687 442.35834Q81.58437 442.35834 82.1 442.6396Q82.63125 442.92084 82.975 443.4521Q83.31875 443.9677 83.50625 444.7177Q83.69375 445.4677 83.69375 446.74896Q83.69375 448.2646 83.38125 449.18646Q83.08437 450.10834 82.45937 450.62396Q81.85 451.12396 80.89687 451.12396Q79.6625 451.12396 78.94375 450.23334Q78.1 449.17084 78.1 446.74896ZM79.17812 446.74896Q79.17812 448.85834 79.67812 449.56146Q80.17812 450.2646 80.89687 450.2646Q81.63125 450.2646 82.11562 449.56146Q82.61562 448.85834 82.61562 446.74896Q82.61562 444.62396 82.11562 443.93646Q81.63125 443.23334 80.88125 443.23334Q80.1625 443.23334 79.725 443.8427Q79.17812 444.62396 79.17812 446.74896ZM85.1 446.74896Q85.1 445.2177 85.4125 444.29584Q85.725 443.35834 86.33437 442.85834Q86.95937 442.35834 87.89687 442.35834Q88.58437 442.35834 89.1 442.6396Q89.63125 442.92084 89.975 443.4521Q90.31875 443.9677 90.50625 444.7177Q90.69375 445.4677 90.69375 446.74896Q90.69375 448.2646 90.38125 449.18646Q90.08437 450.10834 89.45937 450.62396Q88.85 451.12396 87.89687 451.12396Q86.6625 451.12396 85.94375 450.23334Q85.1 449.17084 85.1 446.74896ZM86.17812 446.74896Q86.17812 448.85834 86.67812 449.56146Q87.17812 450.2646 87.89687 450.2646Q88.63125 450.2646 89.11562 449.56146Q89.61562 448.85834 89.61562 446.74896Q89.61562 444.62396 89.11562 443.93646Q88.63125 443.23334 87.88125 443.23334Q87.1625 443.23334 86.725 443.8427Q86.17812 444.62396 86.17812 446.74896Z" fill-rule="nonzero"/><path fill="#000000" d="M68.06875 349.56668L67.02187 349.56668L67.02187 342.84793Q66.63125 343.2073 66.00625 343.5823Q65.39687 343.94168 64.9125 344.11356L64.9125 343.09793Q65.7875 342.67606 66.44375 342.09793Q67.11562 341.50418 67.39687 340.94168L68.06875 340.94168L68.06875 349.56668ZM71.1 345.3323Q71.1 343.80106 71.4125 342.87918Q71.725 341.94168 72.33437 341.44168Q72.95937 340.94168 73.89687 340.94168Q74.58437 340.94168 75.1 341.22293Q75.63125 341.50418 75.975 342.03543Q76.31875 342.55106 76.50625 343.30106Q76.69375 344.05106 76.69375 345.3323Q76.69375 346.84793 76.38125 347.7698Q76.08437 348.69168 75.45937 349.2073Q74.85 349.7073 73.89687 349.7073Q72.6625 349.7073 71.94375 348.81668Q71.1 347.75418 71.1 345.3323ZM72.17812 345.3323Q72.17812 347.44168 72.67812 348.1448Q73.17812 348.84793 73.89687 348.84793Q74.63125 348.84793 75.11562 348.1448Q75.61562 347.44168 75.61562 345.3323Q75.61562 343.2073 75.11562 342.5198Q74.63125 341.81668 73.88125 341.81668Q73.1625 341.81668 72.725 342.42606Q72.17812 343.2073 72.17812 345.3323ZM78.1 345.3323Q78.1 343.80106 78.4125 342.87918Q78.725 341.94168 79.33437 341.44168Q79.95937 340.94168 80.89687 340.94168Q81.58437 340.94168 82.1 341.22293Q82.63125 341.50418 82.975 342.03543Q83.31875 342.55106 83.50625 343.30106Q83.69375 344.05106 83.69375 345.3323Q83.69375 346.84793 83.38125 347.7698Q83.08437 348.69168 82.45937 349.2073Q81.85 349.7073 80.89687 349.7073Q79.6625 349.7073 78.94375 348.81668Q78.1 347.75418 78.1 345.3323ZM79.17812 345.3323Q79.17812 347.44168 79.67812 348.1448Q80.17812 348.84793 80.89687 348.84793Q81.63125 348.84793 82.11562 348.1448Q82.61562 347.44168 82.61562 345.3323Q82.61562 343.2073 82.11562 342.5198Q81.63125 341.81668 80.88125 341.81668Q80.1625 341.81668 79.725 342.42606Q79.17812 343.2073 79.17812 345.3323ZM85.1 345.3323Q85.1 343.80106 85.4125 342.87918Q85.725 341.94168 86.33437 341.44168Q86.95937 340.94168 87.89687 340.94168Q88.58437 340.94168 89.1 341.22293Q89.63125 341.50418 89.975 342.03543Q90.31875 342.55106 90.50625 343.30106Q90.69375 344.05106 90.69375 345.3323Q90.69375 346.84793 90.38125 347.7698Q90.08437 348.69168 89.45937 349.2073Q88.85 349.7073 87.89687 349.7073Q86.6625 349.7073 85.94375 348.81668Q85.1 347.75418 85.1 345.3323ZM86.17812 345.3323Q86.17812 347.44168 86.67812 348.1448Q87.17812 348.84793 87.89687 348.84793Q88.63125 348.84793 89.11562 348.1448Q89.61562 347.44168 89.61562 345.3323Q89.61562 343.2073 89.11562 342.5198Q88.63125 341.81668 87.88125 341.81668Q87.1625 341.81668 86.725 342.42606Q86.17812 343.2073 86.17812 345.3323Z" fill-rule="nonzero"/><path fill="#000000" d="M68.06875 248.15L67.02187 248.15L67.02187 241.43124Q66.63125 241.79062 66.00625 242.16562Q65.39687 242.525 64.9125 242.69687L64.9125 241.68124Q65.7875 241.25937 66.44375 240.68124Q67.11562 240.0875 67.39687 239.525L68.06875 239.525L68.06875 248.15ZM71.1 245.9L72.20937 245.80624Q72.33437 246.61874 72.77187 247.025Q73.225 247.43124 73.86562 247.43124Q74.61562 247.43124 75.14687 246.85312Q75.67812 246.275 75.67812 245.3375Q75.67812 244.43124 75.1625 243.91562Q74.6625 243.38437 73.83437 243.38437Q73.33437 243.38437 72.9125 243.61874Q72.50625 243.85312 72.27187 244.2125L71.2875 244.0875L72.11562 239.68124L76.39687 239.68124L76.39687 240.68124L72.95937 240.68124L72.50625 242.99374Q73.27187 242.44687 74.11562 242.44687Q75.24062 242.44687 76.00625 243.22812Q76.7875 244.00937 76.7875 245.24374Q76.7875 246.4 76.11562 247.25937Q75.2875 248.29062 73.86562 248.29062Q72.69375 248.29062 71.94375 247.63437Q71.20937 246.97812 71.1 245.9ZM78.1 243.91562Q78.1 242.38437 78.4125 241.4625Q78.725 240.525 79.33437 240.025Q79.95937 239.525 80.89687 239.525Q81.58437 239.525 82.1 239.80624Q82.63125 240.0875 82.975 240.61874Q83.31875 241.13437 83.50625 241.88437Q83.69375 242.63437 83.69375 243.91562Q83.69375 245.43124 83.38125 246.35312Q83.08437 247.275 82.45937 247.79062Q81.85 248.29062 80.89687 248.29062Q79.6625 248.29062 78.94375 247.4Q78.1 246.3375 78.1 243.91562ZM79.17812 243.91562Q79.17812 246.025 79.67812 246.72812Q80.17812 247.43124 80.89687 247.43124Q81.63125 247.43124 82.11562 246.72812Q82.61562 246.025 82.61562 243.91562Q82.61562 241.79062 82.11562 241.10312Q81.63125 240.4 80.88125 240.4Q80.1625 240.4 79.725 241.00937Q79.17812 241.79062 79.17812 243.91562ZM85.1 243.91562Q85.1 242.38437 85.4125 241.4625Q85.725 240.525 86.33437 240.025Q86.95937 239.525 87.89687 239.525Q88.58437 239.525 89.1 239.80624Q89.63125 240.0875 89.975 240.61874Q90.31875 241.13437 90.50625 241.88437Q90.69375 242.63437 90.69375 243.91562Q90.69375 245.43124 90.38125 246.35312Q90.08437 247.275 89.45937 247.79062Q88.85 248.29062 87.89687 248.29062Q86.6625 248.29062 85.94375 247.4Q85.1 246.3375 85.1 243.91562ZM86.17812 243.91562Q86.17812 246.025 86.67812 246.72812Q87.17812 247.43124 87.89687 247.43124Q88.63125 247.43124 89.11562 246.72812Q89.61562 246.025 89.61562 243.91562Q89.61562 241.79062 89.11562 241.10312Q88.63125 240.4 87.88125 240.4Q87.1625 240.4 86.725 241.00937Q86.17812 241.79062 86.17812 243.91562Z" fill-rule="nonzero"/><path fill="#000000" d="M69.64687 145.71771L69.64687 146.73334L63.959373 146.73334Q63.959373 146.35834 64.08437 145.99896Q64.30312 145.42084 64.77187 144.85834Q65.25625 144.29584 66.1625 143.56146Q67.56875 142.40521 68.05312 141.73334Q68.55312 141.06146 68.55312 140.46771Q68.55312 139.84271 68.1 139.42084Q67.64687 138.98334 66.92812 138.98334Q66.1625 138.98334 65.70937 139.43646Q65.25625 139.88959 65.24062 140.70209L64.1625 140.59271Q64.27187 139.37396 64.99062 138.74896Q65.725 138.10834 66.95937 138.10834Q68.19375 138.10834 68.9125 138.79584Q69.63125 139.48334 69.63125 140.49896Q69.63125 141.01459 69.4125 141.51459Q69.20937 141.99896 68.70937 142.56146Q68.225 143.10834 67.1 144.06146Q66.14687 144.85834 65.86562 145.15521Q65.6 145.43646 65.42812 145.71771L69.64687 145.71771ZM71.1 142.49896Q71.1 140.96771 71.4125 140.04584Q71.725 139.10834 72.33437 138.60834Q72.95937 138.10834 73.89687 138.10834Q74.58437 138.10834 75.1 138.38959Q75.63125 138.67084 75.975 139.20209Q76.31875 139.71771 76.50625 140.46771Q76.69375 141.21771 76.69375 142.49896Q76.69375 144.01459 76.38125 144.93646Q76.08437 145.85834 75.45937 146.37396Q74.85 146.87396 73.89687 146.87396Q72.6625 146.87396 71.94375 145.98334Q71.1 144.92084 71.1 142.49896ZM72.17812 142.49896Q72.17812 144.60834 72.67812 145.31146Q73.17812 146.01459 73.89687 146.01459Q74.63125 146.01459 75.11562 145.31146Q75.61562 144.60834 75.61562 142.49896Q75.61562 140.37396 75.11562 139.68646Q74.63125 138.98334 73.88125 138.98334Q73.1625 138.98334 72.725 139.59271Q72.17812 140.37396 72.17812 142.49896ZM78.1 142.49896Q78.1 140.96771 78.4125 140.04584Q78.725 139.10834 79.33437 138.60834Q79.95937 138.10834 80.89687 138.10834Q81.58437 138.10834 82.1 138.38959Q82.63125 138.67084 82.975 139.20209Q83.31875 139.71771 83.50625 140.46771Q83.69375 141.21771 83.69375 142.49896Q83.69375 144.01459 83.38125 144.93646Q83.08437 145.85834 82.45937 146.37396Q81.85 146.87396 80.89687 146.87396Q79.6625 146.87396 78.94375 145.98334Q78.1 144.92084 78.1 142.49896ZM79.17812 142.49896Q79.17812 144.60834 79.67812 145.31146Q80.17812 146.01459 80.89687 146.01459Q81.63125 146.01459 82.11562 145.31146Q82.61562 144.60834 82.61562 142.49896Q82.61562 140.37396 82.11562 139.68646Q81.63125 138.98334 80.88125 138.98334Q80.1625 138.98334 79.725 139.59271Q79.17812 140.37396 79.17812 142.49896ZM85.1 142.49896Q85.1 140.96771 85.4125 140.04584Q85.725 139.10834 86.33437 138.60834Q86.95937 138.10834 87.89687 138.10834Q88.58437 138.10834 89.1 138.38959Q89.63125 138.67084 89.975 139.20209Q90.31875 139.71771 90.50625 140.46771Q90.69375 141.21771 90.69375 142.49896Q90.69375 144.01459 90.38125 144.93646Q90.08437 145.85834 89.45937 146.37396Q88.85 146.87396 87.89687 146.87396Q86.6625 146.87396 85.94375 145.98334Q85.1 144.92084 85.1 142.49896ZM86.17812 142.49896Q86.17812 144.60834 86.67812 145.31146Q87.17812 146.01459 87.89687 146.01459Q88.63125 146.01459 89.11562 145.31146Q89.61562 144.60834 89.61562 142.49896Q89.61562 140.37396 89.11562 139.68646Q88.63125 138.98334 87.88125 138.98334Q87.1625 138.98334 86.725 139.59271Q86.17812 140.37396 86.17812 142.49896Z" fill-rule="nonzero"/><path fill="#000000" d="M222.59213 556.3844L219.59213 556.3844Q219.24838 556.3844 219.24838 556.6969Q219.24838 556.9938 219.59213 556.9938L222.639 556.9938Q222.92026 556.9938 222.90463 556.6969Q222.889 556.3844 222.59213 556.3844ZM223.764 557.775L218.43588 557.775Q218.10776 557.775 218.10776 558.0719Q218.10776 558.3844 218.43588 558.3844L220.74838 558.3844L220.74838 558.6344Q220.74838 559.60315 220.0765 560.3063Q219.37338 561.0094 218.09213 561.3063Q217.92026 561.3375 217.87338 561.4625Q217.8265 561.5719 217.87338 561.7125Q217.92026 561.8375 218.04526 561.9Q218.15463 561.9938 218.31088 561.9469Q219.514 561.6188 220.24838 561.025Q220.84213 560.54065 221.09213 559.9469Q221.3265 560.5094 221.99838 560.9938Q222.74838 561.525 223.84213 561.8063Q224.014 561.85315 224.15463 561.7594Q224.29526 561.6969 224.3265 561.5563Q224.37338 561.4313 224.29526 561.29065Q224.23276 561.16565 224.06088 561.1344Q222.79526 560.8688 222.10776 560.22815Q221.43588 559.5875 221.43588 558.6188L221.43588 558.3844L223.764 558.3844Q224.06088 558.3844 224.06088 558.0719Q224.06088 557.775 223.764 557.775ZM226.264 561.9L226.264 556.5094Q226.264 556.35315 226.139 556.275Q226.04526 556.1813 225.90463 556.1813Q225.74838 556.1813 225.65463 556.275Q225.56088 556.3688 225.56088 556.5094L225.56088 559.41565L223.67026 559.41565Q223.49838 559.41565 223.42026 559.5094Q223.34213 559.60315 223.35776 559.7125Q223.35776 559.8375 223.4515 559.9313Q223.56088 560.025 223.74838 560.025L225.56088 560.025L225.56088 561.9Q225.56088 562.0719 225.65463 562.16565Q225.74838 562.2594 225.90463 562.2594Q226.04526 562.2594 226.139 562.16565Q226.264 562.0719 226.264 561.9ZM222.27963 562.5719Q222.27963 563.72815 221.2015 564.525Q220.18588 565.29065 218.73276 565.4Q218.54526 565.4 218.4515 565.5094Q218.37338 565.60315 218.389 565.72815Q218.389 565.85315 218.49838 565.9469Q218.60776 566.04065 218.77963 566.025Q220.12338 565.9 221.23276 565.2438Q222.21713 564.6344 222.59213 563.8688Q222.96713 564.6344 223.96713 565.2438Q225.04526 565.9 226.40463 566.025Q226.59213 566.04065 226.7015 565.9469Q226.81088 565.85315 226.8265 565.72815Q226.8265 565.60315 226.73276 565.5094Q226.639 565.4 226.4515 565.4Q224.99838 565.29065 223.99838 564.525Q222.93588 563.72815 222.93588 562.5719Q222.93588 562.4 222.8265 562.29065Q222.73276 562.1969 222.60776 562.1969Q222.46713 562.1969 222.37338 562.29065Q222.27963 562.4 222.27963 562.5719Z" fill-rule="nonzero"/><path fill="#000000" d="M237.40463 558.8688L237.40463 560.72815Q237.40463 560.9625 237.24838 561.0563Q237.12338 561.16565 236.84213 561.16565L234.27963 561.16565Q234.014 561.16565 233.92026 561.0719Q233.81088 560.97815 233.81088 560.72815L233.81088 558.8688L237.40463 558.8688ZM237.40463 556.8063L237.40463 558.275L233.81088 558.275L233.81088 556.8688Q233.81088 556.6813 233.68588 556.5719Q233.59213 556.47815 233.4515 556.47815Q233.31088 556.47815 233.21713 556.5875Q233.10776 556.6969 233.10776 556.8844L233.10776 560.8688Q233.10776 561.29065 233.389 561.54065Q233.67026 561.7594 234.09213 561.7594L237.04526 561.7594Q237.49838 561.7594 237.77963 561.5094Q238.0765 561.2594 238.0765 560.8688L238.0765 556.8219Q238.0765 556.47815 237.73276 556.47815Q237.40463 556.47815 237.40463 556.8063ZM241.264 562.97815L241.264 556.5094Q241.264 556.35315 241.139 556.275Q241.04526 556.1813 240.90463 556.1813Q240.74838 556.1813 240.65463 556.275Q240.56088 556.3688 240.56088 556.5094L240.56088 559.0094L238.54526 559.0094Q238.389 559.0094 238.31088 559.0875Q238.21713 559.1813 238.21713 559.3063Q238.23276 559.41565 238.3265 559.5094Q238.43588 559.60315 238.60776 559.60315L240.56088 559.60315L240.56088 562.97815Q240.56088 563.15 240.65463 563.2594Q240.74838 563.35315 240.90463 563.35315Q241.04526 563.35315 241.139 563.2594Q241.264 563.15 241.264 562.97815ZM234.42026 563.1188Q234.42026 562.9313 234.31088 562.8219Q234.21713 562.72815 234.0765 562.72815Q233.92026 562.72815 233.8265 562.8219Q233.71713 562.9313 233.71713 563.1188L233.71713 564.66565Q233.71713 565.1813 234.04526 565.4625Q234.35776 565.7125 234.889 565.7125L241.31088 565.7125Q241.60776 565.7125 241.60776 565.41565Q241.60776 565.1188 241.31088 565.1188L234.99838 565.1188Q234.65463 565.1188 234.54526 565.0094Q234.42026 564.9 234.42026 564.5719L234.42026 563.1188ZM248.21713 557.15L248.21713 559.2438Q248.21713 560.5875 248.014 561.6188Q247.87338 562.4313 247.59213 563.0875Q247.29526 562.5875 247.09213 561.7125Q246.84213 560.5875 246.84213 559.2125L246.84213 557.15L248.21713 557.15ZM248.92026 557.15L249.74838 557.15Q250.06088 557.15 250.0765 556.8375Q250.0765 556.5563 249.764 556.5563L245.29526 556.5563Q244.9515 556.5563 244.9515 556.8375Q244.9515 557.15 245.27963 557.15L246.139 557.15L246.139 559.2438Q246.139 560.72815 245.639 562.275Q245.23276 563.525 244.7015 564.3063Q244.59213 564.4469 244.62338 564.5875Q244.639 564.7125 244.74838 564.8063Q244.85776 564.8688 244.98276 564.85315Q245.12338 564.85315 245.21713 564.72815Q245.62338 564.10315 245.96713 563.22815Q246.29526 562.3844 246.46713 561.65Q246.5765 562.2438 246.74838 562.7438Q246.93588 563.3063 247.23276 563.8688Q247.12338 564.1344 246.98276 564.3688Q246.889 564.5719 246.73276 564.8063Q246.52963 565.1344 246.79526 565.29065Q247.06088 565.4469 247.264 565.16565Q247.73276 564.5094 248.10776 563.54065Q248.46713 562.65 248.5765 561.97815Q248.62338 562.4313 248.92026 563.3219Q249.2015 564.1969 249.48276 564.8063Q249.56088 564.9469 249.7015 564.9938Q249.8265 565.0094 249.96713 564.9469Q250.09213 564.8688 250.15463 564.7438Q250.21713 564.60315 250.139 564.4625Q249.52963 563.16565 249.24838 562.0094Q248.92026 560.6813 248.92026 559.2125L248.92026 557.15ZM252.889 556.525L252.889 560.8375L251.42026 560.8375L251.42026 556.4938Q251.42026 556.1813 251.06088 556.1813Q250.73276 556.1813 250.73276 556.4938L250.73276 565.6344Q250.73276 565.8063 250.8265 565.9Q250.92026 565.9938 251.06088 565.9938Q251.2015 565.9938 251.29526 565.9Q251.42026 565.8063 251.42026 565.6344L251.42026 561.3844L252.889 561.3844L252.889 565.65Q252.889 565.8063 252.99838 565.91565Q253.09213 565.9938 253.23276 565.9938Q253.35776 565.9938 253.4515 565.91565Q253.5765 565.8063 253.5765 565.65L253.5765 556.525Q253.5765 556.3688 253.4515 556.275Q253.35776 556.1813 253.23276 556.1813Q253.09213 556.1813 252.99838 556.275Q252.889 556.3688 252.889 556.525Z" fill-rule="nonzero"/><path fill="#000000" d="M411.68176 556.4Q410.4005 556.4 409.6505 557.1344Q408.97864 557.8219 408.97864 558.8219Q408.97864 559.8063 409.6505 560.47815Q410.4005 561.2125 411.68176 561.2125Q412.9474 561.2125 413.66614 560.47815Q414.338 559.8063 414.338 558.8219Q414.338 557.8219 413.66614 557.1344Q412.93176 556.4 411.68176 556.4ZM411.68176 557.0094Q412.6349 557.0094 413.16614 557.5563Q413.66614 558.0563 413.66614 558.8219Q413.66614 559.5719 413.16614 560.0719Q412.6349 560.6344 411.68176 560.6344Q410.713 560.6344 410.16614 560.0719Q409.68176 559.5719 409.68176 558.8219Q409.68176 558.0563 410.16614 557.5563Q410.713 557.0094 411.68176 557.0094ZM416.93176 557.91565L416.93176 556.5094Q416.93176 556.1813 416.5724 556.1813Q416.24426 556.1813 416.24426 556.5094L416.24426 561.1969Q416.24426 561.3688 416.338 561.4625Q416.43176 561.5563 416.5724 561.5563Q416.713 561.5563 416.80676 561.4625Q416.93176 561.3688 416.93176 561.1969L416.93176 560.7125L418.22864 560.7125Q418.5099 560.7125 418.5099 560.4Q418.5099 560.1188 418.22864 560.1188L416.93176 560.1188L416.93176 558.525L418.22864 558.525Q418.5099 558.525 418.5099 558.2125Q418.5099 557.91565 418.22864 557.91565L416.93176 557.91565ZM415.7755 562.525L409.72864 562.525Q409.4005 562.525 409.4005 562.8375Q409.4005 563.1344 409.72864 563.1344L415.7755 563.1344Q416.0099 563.1344 416.1349 563.2438Q416.24426 563.3375 416.24426 563.5563L416.24426 565.65Q416.24426 565.8063 416.338 565.91565Q416.43176 565.9938 416.5724 565.9938Q416.713 565.9938 416.80676 565.91565Q416.93176 565.8063 416.93176 565.65L416.93176 563.5563Q416.93176 563.0719 416.6349 562.79065Q416.338 562.525 415.7755 562.525Z" fill-rule="nonzero"/><path fill="#000000" d="M422.99426 563.15L424.10364 563.0563Q424.22864 563.8688 424.66614 564.275Q425.11926 564.6813 425.7599 564.6813Q426.5099 564.6813 427.04114 564.10315Q427.5724 563.525 427.5724 562.5875Q427.5724 561.6813 427.05676 561.16565Q426.55676 560.6344 425.72864 560.6344Q425.22864 560.6344 424.80676 560.8688Q424.4005 561.10315 424.16614 561.4625L423.18176 561.3375L424.0099 556.9313L428.29114 556.9313L428.29114 557.9313L424.85364 557.9313L424.4005 560.2438Q425.16614 559.6969 426.0099 559.6969Q427.1349 559.6969 427.9005 560.47815Q428.68176 561.2594 428.68176 562.4938Q428.68176 563.65 428.0099 564.5094Q427.18176 565.54065 425.7599 565.54065Q424.588 565.54065 423.838 564.8844Q423.10364 564.22815 422.99426 563.15ZM429.99426 561.16565Q429.99426 559.6344 430.30676 558.7125Q430.61926 557.775 431.22864 557.275Q431.85364 556.775 432.79114 556.775Q433.47864 556.775 433.99426 557.0563Q434.5255 557.3375 434.86926 557.8688Q435.213 558.3844 435.4005 559.1344Q435.588 559.8844 435.588 561.16565Q435.588 562.6813 435.2755 563.60315Q434.97864 564.525 434.35364 565.04065Q433.74426 565.54065 432.79114 565.54065Q431.55676 565.54065 430.838 564.65Q429.99426 563.5875 429.99426 561.16565ZM431.0724 561.16565Q431.0724 563.275 431.5724 563.97815Q432.0724 564.6813 432.79114 564.6813Q433.5255 564.6813 434.0099 563.97815Q434.5099 563.275 434.5099 561.16565Q434.5099 559.04065 434.0099 558.35315Q433.5255 557.65 432.7755 557.65Q432.05676 557.65 431.61926 558.2594Q431.0724 559.04065 431.0724 561.16565ZM437.1974 558.8688Q437.1974 557.9469 437.6505 557.3063Q438.11926 556.66565 438.99426 556.66565Q439.80676 556.66565 440.338 557.2438Q440.86926 557.8219 440.86926 558.9313Q440.86926 560.025 440.3224 560.6188Q439.79114 561.1969 439.0099 561.1969Q438.22864 561.1969 437.713 560.6188Q437.1974 560.04065 437.1974 558.8688ZM439.0255 557.3844Q438.6349 557.3844 438.36926 557.72815Q438.11926 558.0719 438.11926 558.97815Q438.11926 559.8063 438.36926 560.15Q438.6349 560.47815 439.0255 560.47815Q439.43176 560.47815 439.68176 560.1344Q439.9474 559.79065 439.9474 558.9Q439.9474 558.0563 439.68176 557.72815Q439.41614 557.3844 439.0255 557.3844ZM439.0255 565.7125L443.72864 556.66565L444.588 556.66565L439.9005 565.7125L439.0255 565.7125ZM442.74426 563.3844Q442.74426 562.4625 443.1974 561.8219Q443.66614 561.1813 444.55676 561.1813Q445.36926 561.1813 445.9005 561.7594Q446.43176 562.3219 446.43176 563.4469Q446.43176 564.54065 445.8849 565.1344Q445.35364 565.7125 444.55676 565.7125Q443.79114 565.7125 443.2599 565.1344Q442.74426 564.5563 442.74426 563.3844ZM444.588 561.9Q444.18176 561.9 443.91614 562.2438Q443.66614 562.5875 443.66614 563.4938Q443.66614 564.3063 443.93176 564.65Q444.1974 564.9938 444.588 564.9938Q444.97864 564.9938 445.24426 564.65Q445.5099 564.3063 445.5099 563.4Q445.5099 562.5719 445.24426 562.2438Q444.97864 561.9 444.588 561.9Z" fill-rule="nonzero"/><path fill="#000000" d="M457.7755 556.5563L452.4474 556.5563Q452.11926 556.5563 452.11926 556.8375Q452.11926 557.15 452.4474 557.15L454.7599 557.15L454.7599 559.0563Q454.7599 560.8844 453.97864 562.4Q453.22864 563.8688 452.04114 564.47815Q451.8849 564.5563 451.838 564.6969Q451.80676 564.8219 451.8849 564.9469Q451.93176 565.0719 452.05676 565.1188Q452.18176 565.1813 452.3224 565.10315Q453.30676 564.6188 454.088 563.4469Q454.86926 562.3219 455.10364 561.0875Q455.30676 562.275 456.10364 563.4469Q456.9005 564.60315 457.838 565.10315Q458.0099 565.1969 458.16614 565.15Q458.30676 565.1188 458.36926 564.9938Q458.43176 564.8688 458.4005 564.72815Q458.35364 564.5875 458.213 564.5094Q456.97864 563.8219 456.22864 562.3688Q455.4474 560.8688 455.4474 559.04065L455.4474 557.15L457.7755 557.15Q458.0724 557.15 458.0724 556.8375Q458.0724 556.5563 457.7755 556.5563ZM460.2755 565.6344L460.2755 556.5094Q460.2755 556.3688 460.1505 556.275Q460.05676 556.1969 459.91614 556.1969Q459.7599 556.1969 459.66614 556.275Q459.5724 556.3688 459.5724 556.5094L459.5724 565.6344Q459.5724 565.8063 459.66614 565.9Q459.7599 565.9938 459.91614 565.9938Q460.05676 565.9938 460.1505 565.9Q460.2755 565.8063 460.2755 565.6344ZM469.7755 556.4625L464.4474 556.4625Q464.11926 556.4625 464.11926 556.7594Q464.11926 557.0719 464.4474 557.0719L466.7599 557.0719L466.7599 557.4469Q466.7599 558.6813 465.9474 559.5563Q465.29114 560.29065 464.0255 560.8063Q463.8849 560.8688 463.838 560.9938Q463.79114 561.10315 463.85364 561.22815Q463.93176 561.35315 464.04114 561.4Q464.16614 561.4625 464.3224 561.41565Q465.3849 561.0094 466.11926 560.3219Q466.838 559.65 467.10364 558.85315Q467.30676 559.5563 468.10364 560.2594Q468.85364 560.9 469.8224 561.3063Q469.97864 561.3844 470.1349 561.3375Q470.2755 561.29065 470.35364 561.15Q470.4005 561.025 470.36926 560.9Q470.3224 560.775 470.16614 560.7125Q468.99426 560.2438 468.3224 559.54065Q467.4474 558.65 467.4474 557.4313L467.4474 557.0719L469.7755 557.0719Q470.0724 557.0719 470.0724 556.7594Q470.0724 556.4625 469.7755 556.4625ZM472.2755 561.1813L472.2755 556.525Q472.2755 556.3688 472.1505 556.275Q472.05676 556.1813 471.91614 556.1813Q471.7599 556.1813 471.66614 556.275Q471.5724 556.3688 471.5724 556.54065L471.5724 558.5719L469.55676 558.5719Q469.4005 558.5719 469.3224 558.66565Q469.22864 558.7594 469.22864 558.8688Q469.24426 558.9938 469.338 559.0875Q469.4474 559.1813 469.61926 559.1813L471.5724 559.1813L471.5724 561.1813Q471.5724 561.3375 471.66614 561.4469Q471.7599 561.54065 471.91614 561.54065Q472.05676 561.54065 472.1505 561.4469Q472.2755 561.3375 472.2755 561.1813ZM471.5724 563.35315L471.5724 564.7438Q471.5724 564.9469 471.43176 565.04065Q471.3224 565.1188 471.05676 565.1188L465.97864 565.1188Q465.66614 565.1188 465.55676 565.025Q465.4474 564.9313 465.4474 564.6969L465.4474 563.3688Q465.4474 563.15 465.54114 563.0563Q465.66614 562.9469 465.9474 562.9469L471.04114 562.9469Q471.3224 562.9469 471.43176 563.025Q471.5724 563.1188 471.5724 563.35315ZM471.1974 562.35315L465.6974 562.35315Q465.2599 562.35315 465.0099 562.60315Q464.74426 562.8375 464.74426 563.2125L464.74426 564.7594Q464.74426 565.22815 464.99426 565.4625Q465.2599 565.7125 465.85364 565.7125L471.24426 565.7125Q471.713 565.7125 471.99426 565.4938Q472.2755 565.2594 472.2755 564.8063L472.2755 563.16565Q472.2755 562.79065 471.99426 562.5719Q471.6974 562.35315 471.1974 562.35315Z" fill-rule="nonzero"/><path fill="#000000" d="M616.69324 556.4Q615.412 556.4 614.662 557.1344Q613.9901 557.8219 613.9901 558.8219Q613.9901 559.8063 614.662 560.47815Q615.412 561.2125 616.69324 561.2125Q617.95886 561.2125 618.6776 560.47815Q619.3495 559.8063 619.3495 558.8219Q619.3495 557.8219 618.6776 557.1344Q617.94324 556.4 616.69324 556.4ZM616.69324 557.0094Q617.64636 557.0094 618.1776 557.5563Q618.6776 558.0563 618.6776 558.8219Q618.6776 559.5719 618.1776 560.0719Q617.64636 560.6344 616.69324 560.6344Q615.7245 560.6344 615.1776 560.0719Q614.69324 559.5719 614.69324 558.8219Q614.69324 558.0563 615.1776 557.5563Q615.7245 557.0094 616.69324 557.0094ZM621.94324 557.91565L621.94324 556.5094Q621.94324 556.1813 621.58386 556.1813Q621.25574 556.1813 621.25574 556.5094L621.25574 561.1969Q621.25574 561.3688 621.3495 561.4625Q621.44324 561.5563 621.58386 561.5563Q621.7245 561.5563 621.81824 561.4625Q621.94324 561.3688 621.94324 561.1969L621.94324 560.7125L623.2401 560.7125Q623.52136 560.7125 623.52136 560.4Q623.52136 560.1188 623.2401 560.1188L621.94324 560.1188L621.94324 558.525L623.2401 558.525Q623.52136 558.525 623.52136 558.2125Q623.52136 557.91565 623.2401 557.91565L621.94324 557.91565ZM620.787 562.525L614.7401 562.525Q614.412 562.525 614.412 562.8375Q614.412 563.1344 614.7401 563.1344L620.787 563.1344Q621.02136 563.1344 621.14636 563.2438Q621.25574 563.3375 621.25574 563.5563L621.25574 565.65Q621.25574 565.8063 621.3495 565.91565Q621.44324 565.9938 621.58386 565.9938Q621.7245 565.9938 621.81824 565.91565Q621.94324 565.8063 621.94324 565.65L621.94324 563.5563Q621.94324 563.0719 621.64636 562.79065Q621.3495 562.525 620.787 562.525Z" fill-rule="nonzero"/><path fill="#000000" d="M628.06824 557.9313L628.06824 556.91565L633.63074 556.91565L633.63074 557.7438Q632.81824 558.6188 632.00574 560.0719Q631.20886 561.5094 630.77136 563.04065Q630.44324 564.1188 630.3651 565.4L629.27136 565.4Q629.287 564.3844 629.662 562.9469Q630.0526 561.5094 630.75574 560.1813Q631.4745 558.85315 632.287 557.9313L628.06824 557.9313ZM635.162 563.41565L636.1776 563.3219Q636.3026 564.04065 636.662 564.3688Q637.037 564.6813 637.5995 564.6813Q638.08386 564.6813 638.44324 564.4625Q638.81824 564.22815 639.0526 563.8688Q639.287 563.4938 639.44324 562.8688Q639.5995 562.22815 639.5995 561.5719Q639.5995 561.4938 639.5995 561.35315Q639.287 561.85315 638.7401 562.1813Q638.19324 562.4938 637.5526 562.4938Q636.4745 562.4938 635.7401 561.72815Q635.00574 560.9469 635.00574 559.6813Q635.00574 558.3688 635.77136 557.5719Q636.5526 556.775 637.70886 556.775Q638.537 556.775 639.2245 557.22815Q639.9276 557.6813 640.287 558.525Q640.64636 559.35315 640.64636 560.9313Q640.64636 562.5719 640.287 563.5563Q639.94324 564.525 639.2245 565.04065Q638.52136 565.54065 637.58386 565.54065Q636.56824 565.54065 635.9276 564.9938Q635.287 564.4313 635.162 563.41565ZM639.4745 559.6188Q639.4745 558.7125 638.9901 558.1813Q638.52136 557.65 637.83386 557.65Q637.13074 557.65 636.5995 558.22815Q636.08386 558.79065 636.08386 559.7125Q636.08386 560.525 636.58386 561.04065Q637.08386 561.5563 637.8026 561.5563Q638.537 561.5563 639.00574 561.04065Q639.4745 560.525 639.4745 559.6188ZM642.20886 558.8688Q642.20886 557.9469 642.662 557.3063Q643.13074 556.66565 644.00574 556.66565Q644.81824 556.66565 645.3495 557.2438Q645.88074 557.8219 645.88074 558.9313Q645.88074 560.025 645.33386 560.6188Q644.8026 561.1969 644.02136 561.1969Q643.2401 561.1969 642.7245 560.6188Q642.20886 560.04065 642.20886 558.8688ZM644.037 557.3844Q643.64636 557.3844 643.38074 557.72815Q643.13074 558.0719 643.13074 558.97815Q643.13074 559.8063 643.38074 560.15Q643.64636 560.47815 644.037 560.47815Q644.44324 560.47815 644.69324 560.1344Q644.95886 559.79065 644.95886 558.9Q644.95886 558.0563 644.69324 557.72815Q644.4276 557.3844 644.037 557.3844ZM644.037 565.7125L648.7401 556.66565L649.5995 556.66565L644.912 565.7125L644.037 565.7125ZM647.75574 563.3844Q647.75574 562.4625 648.20886 561.8219Q648.6776 561.1813 649.56824 561.1813Q650.38074 561.1813 650.912 561.7594Q651.44324 562.3219 651.44324 563.4469Q651.44324 564.54065 650.89636 565.1344Q650.3651 565.7125 649.56824 565.7125Q648.8026 565.7125 648.27136 565.1344Q647.75574 564.5563 647.75574 563.3844ZM649.5995 561.9Q649.19324 561.9 648.9276 562.2438Q648.6776 562.5875 648.6776 563.4938Q648.6776 564.3063 648.94324 564.65Q649.20886 564.9938 649.5995 564.9938Q649.9901 564.9938 650.25574 564.65Q650.52136 564.3063 650.52136 563.4Q650.52136 562.5719 650.25574 562.2438Q649.9901 561.9 649.5995 561.9Z" fill-rule="nonzero"/><path fill="#000000" d="M662.787 556.5563L657.45886 556.5563Q657.13074 556.5563 657.13074 556.8375Q657.13074 557.15 657.45886 557.15L659.77136 557.15L659.77136 559.0563Q659.77136 560.8844 658.9901 562.4Q658.2401 563.8688 657.0526 564.47815Q656.89636 564.5563 656.8495 564.6969Q656.81824 564.8219 656.89636 564.9469Q656.94324 565.0719 657.06824 565.1188Q657.19324 565.1813 657.33386 565.10315Q658.31824 564.6188 659.0995 563.4469Q659.88074 562.3219 660.1151 561.0875Q660.31824 562.275 661.1151 563.4469Q661.912 564.60315 662.8495 565.10315Q663.02136 565.1969 663.1776 565.15Q663.31824 565.1188 663.38074 564.9938Q663.44324 564.8688 663.412 564.72815Q663.3651 564.5875 663.2245 564.5094Q661.9901 563.8219 661.2401 562.3688Q660.45886 560.8688 660.45886 559.04065L660.45886 557.15L662.787 557.15Q663.08386 557.15 663.08386 556.8375Q663.08386 556.5563 662.787 556.5563ZM665.287 565.6344L665.287 556.5094Q665.287 556.3688 665.162 556.275Q665.06824 556.1969 664.9276 556.1969Q664.77136 556.1969 664.6776 556.275Q664.58386 556.3688 664.58386 556.5094L664.58386 565.6344Q664.58386 565.8063 664.6776 565.9Q664.77136 565.9938 664.9276 565.9938Q665.06824 565.9938 665.162 565.9Q665.287 565.8063 665.287 565.6344ZM674.787 556.4625L669.45886 556.4625Q669.13074 556.4625 669.13074 556.7594Q669.13074 557.0719 669.45886 557.0719L671.77136 557.0719L671.77136 557.4469Q671.77136 558.6813 670.95886 559.5563Q670.3026 560.29065 669.037 560.8063Q668.89636 560.8688 668.8495 560.9938Q668.8026 561.10315 668.8651 561.22815Q668.94324 561.35315 669.0526 561.4Q669.1776 561.4625 669.33386 561.41565Q670.39636 561.0094 671.13074 560.3219Q671.8495 559.65 672.1151 558.85315Q672.31824 559.5563 673.1151 560.2594Q673.8651 560.9 674.83386 561.3063Q674.9901 561.3844 675.14636 561.3375Q675.287 561.29065 675.3651 561.15Q675.412 561.025 675.38074 560.9Q675.33386 560.775 675.1776 560.7125Q674.00574 560.2438 673.33386 559.54065Q672.45886 558.65 672.45886 557.4313L672.45886 557.0719L674.787 557.0719Q675.08386 557.0719 675.08386 556.7594Q675.08386 556.4625 674.787 556.4625ZM677.287 561.1813L677.287 556.525Q677.287 556.3688 677.162 556.275Q677.06824 556.1813 676.9276 556.1813Q676.77136 556.1813 676.6776 556.275Q676.58386 556.3688 676.58386 556.54065L676.58386 558.5719L674.56824 558.5719Q674.412 558.5719 674.33386 558.66565Q674.2401 558.7594 674.2401 558.8688Q674.25574 558.9938 674.3495 559.0875Q674.45886 559.1813 674.63074 559.1813L676.58386 559.1813L676.58386 561.1813Q676.58386 561.3375 676.6776 561.4469Q676.77136 561.54065 676.9276 561.54065Q677.06824 561.54065 677.162 561.4469Q677.287 561.3375 677.287 561.1813ZM676.58386 563.35315L676.58386 564.7438Q676.58386 564.9469 676.44324 565.04065Q676.33386 565.1188 676.06824 565.1188L670.9901 565.1188Q670.6776 565.1188 670.56824 565.025Q670.45886 564.9313 670.45886 564.6969L670.45886 563.3688Q670.45886 563.15 670.5526 563.0563Q670.6776 562.9469 670.95886 562.9469L676.0526 562.9469Q676.33386 562.9469 676.44324 563.025Q676.58386 563.1188 676.58386 563.35315ZM676.20886 562.35315L670.70886 562.35315Q670.27136 562.35315 670.02136 562.60315Q669.75574 562.8375 669.75574 563.2125L669.75574 564.7594Q669.75574 565.22815 670.00574 565.4625Q670.27136 565.7125 670.8651 565.7125L676.25574 565.7125Q676.7245 565.7125 677.00574 565.4938Q677.287 565.2594 677.287 564.8063L677.287 563.16565Q677.287 562.79065 677.00574 562.5719Q676.70886 562.35315 676.20886 562.35315Z" fill-rule="nonzero"/><path fill="#000000" d="M838.8922 557.6344L838.8922 563.9313Q838.8922 564.1969 838.7672 564.3063Q838.6422 564.4 838.34534 564.4L835.86096 564.4Q835.5641 564.4 835.4547 564.29065Q835.34534 564.1969 835.34534 563.91565L835.34534 557.6969Q835.34534 557.4313 835.4391 557.29065Q835.5641 557.15 835.8297 557.15L838.3297 557.15Q838.6266 557.15 838.7672 557.2594Q838.8922 557.3844 838.8922 557.6344ZM838.3766 556.5563L835.73596 556.5563Q835.22034 556.5563 834.92346 556.8688Q834.6422 557.16565 834.6422 557.65L834.6422 563.97815Q834.6422 564.47815 834.90784 564.72815Q835.17346 564.9938 835.7672 564.9938L838.4547 564.9938Q839.0016 564.9938 839.28284 564.7438Q839.5641 564.47815 839.5641 563.9625L839.5641 557.5719Q839.5641 557.0875 839.23596 556.8063Q838.90784 556.5563 838.3766 556.5563ZM842.4547 560.8063L842.4547 556.5094Q842.4547 556.3688 842.3297 556.275Q842.23596 556.1969 842.09534 556.1969Q841.9547 556.1969 841.86096 556.275Q841.7672 556.3688 841.7672 556.5094L841.7672 565.66565Q841.7672 565.8063 841.86096 565.9Q841.9547 565.9938 842.09534 565.9938Q842.23596 565.9938 842.3297 565.9Q842.4547 565.8063 842.4547 565.66565L842.4547 561.3844L843.7516 561.3844Q844.03284 561.3844 844.03284 561.0875Q844.03284 560.8063 843.7516 560.8063L842.4547 560.8063ZM852.29846 556.5563L846.97034 556.5563Q846.6422 556.5563 846.6422 556.8375Q846.6422 557.15 846.97034 557.15L849.28284 557.15L849.28284 559.0563Q849.28284 560.8844 848.5016 562.4Q847.7516 563.8688 846.5641 564.47815Q846.40784 564.5563 846.36096 564.6969Q846.3297 564.8219 846.40784 564.9469Q846.4547 565.0719 846.5797 565.1188Q846.7047 565.1813 846.84534 565.10315Q847.8297 564.6188 848.61096 563.4469Q849.3922 562.3219 849.6266 561.0875Q849.8297 562.275 850.6266 563.4469Q851.42346 564.60315 852.36096 565.10315Q852.53284 565.1969 852.6891 565.15Q852.8297 565.1188 852.8922 564.9938Q852.9547 564.8688 852.92346 564.72815Q852.8766 564.5875 852.73596 564.5094Q851.5016 563.8219 850.7516 562.3688Q849.97034 560.8688 849.97034 559.04065L849.97034 557.15L852.29846 557.15Q852.59534 557.15 852.59534 556.8375Q852.59534 556.5563 852.29846 556.5563ZM854.79846 565.6344L854.79846 556.5094Q854.79846 556.3688 854.67346 556.275Q854.5797 556.1969 854.4391 556.1969Q854.28284 556.1969 854.1891 556.275Q854.09534 556.3688 854.09534 556.5094L854.09534 565.6344Q854.09534 565.8063 854.1891 565.9Q854.28284 565.9938 854.4391 565.9938Q854.5797 565.9938 854.67346 565.9Q854.79846 565.8063 854.79846 565.6344ZM862.8922 557.5719L862.8922 560.2125Q862.8922 560.47815 862.7672 560.5875Q862.6422 560.6813 862.36096 560.6813L859.86096 560.6813Q859.5641 560.6813 859.4547 560.5875Q859.34534 560.4938 859.34534 560.22815L859.34534 557.6344Q859.34534 557.3219 859.4391 557.1969Q859.5641 557.0719 859.84534 557.0719L862.34534 557.0719Q862.6422 557.0719 862.7672 557.1969Q862.8922 557.3063 862.8922 557.5719ZM862.53284 556.4625L859.6891 556.4625Q859.2047 556.4625 858.92346 556.775Q858.6422 557.0563 858.6422 557.47815L858.6422 560.35315Q858.6422 560.775 858.92346 561.025Q859.1891 561.275 859.6422 561.275L862.48596 561.275Q862.97034 561.275 863.2672 561.025Q863.5641 560.775 863.5641 560.35315L863.5641 557.4Q863.5641 556.97815 863.28284 556.7125Q863.0016 556.4625 862.53284 556.4625ZM866.4547 559.025L866.4547 556.5094Q866.4547 556.1813 866.09534 556.1813Q865.7672 556.1813 865.7672 556.5094L865.7672 561.1969Q865.7672 561.3688 865.86096 561.4625Q865.9547 561.5563 866.09534 561.5563Q866.23596 561.5563 866.3297 561.4625Q866.4547 561.3688 866.4547 561.1969L866.4547 559.6188L867.73596 559.6188Q868.03284 559.6188 868.03284 559.3219Q868.03284 559.025 867.73596 559.025L866.4547 559.025ZM865.29846 562.525L859.2516 562.525Q858.92346 562.525 858.92346 562.8375Q858.92346 563.1344 859.2516 563.1344L865.29846 563.1344Q865.53284 563.1344 865.65784 563.2438Q865.7672 563.3375 865.7672 563.5563L865.7672 565.65Q865.7672 565.8063 865.86096 565.91565Q865.9547 565.9938 866.09534 565.9938Q866.23596 565.9938 866.3297 565.91565Q866.4547 565.8063 866.4547 565.65L866.4547 563.5563Q866.4547 563.0719 866.15784 562.79065Q865.86096 562.525 865.29846 562.525Z" fill-rule="nonzero"/><path fill="#4285f4" d="M408.0 99.166664C408.0 98.61438 408.44772 98.166664 409.0 98.166664L419.0 98.166664C419.55228 98.166664 420.0 98.61438 420.0 99.166664L420.0 109.166664C420.0 109.71895 419.55228 110.166664 419.0 110.166664L409.0 110.166664C408.44772 110.166664 408.0 109.71895 408.0 109.166664Z" fill-rule="nonzero"/><path fill="#1a1a1a" d="M429.29688 110.666664L429.29688 97.77604L431.76562 97.77604L431.76562 110.666664L429.29688 110.666664ZM434.29688 100.072914L434.29688 97.77604L436.76562 97.77604L436.76562 100.072914L434.29688 100.072914ZM434.29688 110.666664L434.29688 101.33854L436.76562 101.33854L436.76562 110.666664L434.29688 110.666664ZM439.10938 101.33854L441.39062 101.33854L441.39062 102.604164Q442.60938 101.11979 444.29688 101.11979Q445.1875 101.11979 445.84375 101.49479Q446.51562 101.854164 446.9375 102.604164Q447.54688 101.854164 448.25 101.49479Q448.96875 101.11979 449.78125 101.11979Q450.8125 101.11979 451.51562 101.541664Q452.23438 101.96354 452.57812 102.760414Q452.84375 103.36979 452.84375 104.697914L452.84375 110.666664L450.35938 110.666664L450.35938 105.33854Q450.35938 103.947914 450.10938 103.541664Q449.76562 103.010414 449.0625 103.010414Q448.53125 103.010414 448.07812 103.33854Q447.625 103.65104 447.42188 104.260414Q447.21875 104.86979 447.21875 106.18229L447.21875 110.666664L444.75 110.666664L444.75 105.55729Q444.75 104.18229 444.60938 103.791664Q444.48438 103.40104 444.20312 103.21354Q443.9375 103.010414 443.45312 103.010414Q442.89062 103.010414 442.42188 103.322914Q441.96875 103.61979 441.76562 104.21354Q441.57812 104.791664 441.57812 106.135414L441.57812 110.666664L439.10938 110.666664L439.10938 101.33854ZM456.29688 100.072914L456.29688 97.77604L458.76562 97.77604L458.76562 100.072914L456.29688 100.072914ZM456.29688 110.666664L456.29688 101.33854L458.76562 101.33854L458.76562 110.666664L456.29688 110.666664ZM465.57812 101.33854L465.57812 103.30729L463.89062 103.30729L463.89062 107.05729Q463.89062 108.197914 463.9375 108.40104Q463.98438 108.58854 464.15625 108.71354Q464.32812 108.822914 464.57812 108.822914Q464.90625 108.822914 465.5625 108.58854L465.78125 110.510414Q464.90625 110.885414 463.82812 110.885414Q463.15625 110.885414 462.60938 110.666664Q462.07812 110.43229 461.82812 110.072914Q461.57812 109.71354 461.48438 109.104164Q461.40625 108.68229 461.40625 107.36979L461.40625 103.30729L460.26562 103.30729L460.26562 101.33854L461.40625 101.33854L461.40625 99.479164L463.89062 98.041664L463.89062 101.33854L465.57812 101.33854ZM465.96875 110.885414L469.17188 97.55729L471.01562 97.55729L467.79688 110.885414L465.96875 110.885414ZM471.71875 105.86979Q471.71875 104.635414 472.32812 103.49479Q472.9375 102.33854 474.04688 101.729164Q475.15625 101.11979 476.53125 101.11979Q478.64062 101.11979 480.0 102.49479Q481.35938 103.86979 481.35938 105.979164Q481.35938 108.08854 479.98438 109.49479Q478.625 110.885414 476.54688 110.885414Q475.26562 110.885414 474.09375 110.30729Q472.9375 109.71354 472.32812 108.604164Q471.71875 107.479164 471.71875 105.86979ZM474.25 105.99479Q474.25 107.385414 474.90625 108.135414Q475.57812 108.86979 476.53125 108.86979Q477.5 108.86979 478.15625 108.135414Q478.8125 107.385414 478.8125 105.979164Q478.8125 104.604164 478.15625 103.86979Q477.5 103.135414 476.53125 103.135414Q475.57812 103.135414 474.90625 103.86979Q474.25 104.604164 474.25 105.99479ZM482.21875 101.33854L483.57812 101.33854L483.57812 100.635414Q483.57812 99.447914 483.82812 98.86979Q484.07812 98.291664 484.75 97.93229Q485.42188 97.55729 486.45312 97.55729Q487.51562 97.55729 488.51562 97.885414L488.1875 99.604164Q487.59375 99.46354 487.04688 99.46354Q486.51562 99.46354 486.28125 99.71354Q486.04688 99.96354 486.04688 100.666664L486.04688 101.33854L487.89062 101.33854L487.89062 103.27604L486.04688 103.27604L486.04688 110.666664L483.57812 110.666664L483.57812 103.27604L482.21875 103.27604L482.21875 101.33854ZM488.21875 101.33854L489.57812 101.33854L489.57812 100.635414Q489.57812 99.447914 489.82812 98.86979Q490.07812 98.291664 490.75 97.93229Q491.42188 97.55729 492.45312 97.55729Q493.51562 97.55729 494.51562 97.885414L494.1875 99.604164Q493.59375 99.46354 493.04688 99.46354Q492.51562 99.46354 492.28125 99.71354Q492.04688 99.96354 492.04688 100.666664L492.04688 101.33854L493.89062 101.33854L493.89062 103.27604L492.04688 103.27604L492.04688 110.666664L489.57812 110.666664L489.57812 103.27604L488.21875 103.27604L488.21875 101.33854ZM494.42188 108.010414L496.90625 107.61979Q497.0625 108.33854 497.54688 108.71354Q498.03125 109.08854 498.89062 109.08854Q499.85938 109.08854 500.34375 108.74479Q500.65625 108.49479 500.65625 108.08854Q500.65625 107.80729 500.48438 107.61979Q500.29688 107.447914 499.65625 107.291664Q496.67188 106.635414 495.875 106.08854Q494.76562 105.33854 494.76562 103.979164Q494.76562 102.77604 495.71875 101.947914Q496.6875 101.11979 498.6875 101.11979Q500.60938 101.11979 501.53125 101.74479Q502.46875 102.36979 502.82812 103.58854L500.5 104.02604Q500.34375 103.479164 499.92188 103.197914Q499.51562 102.90104 498.73438 102.90104Q497.76562 102.90104 497.34375 103.166664Q497.0625 103.36979 497.0625 103.666664Q497.0625 103.93229 497.3125 104.11979Q497.64062 104.36979 499.60938 104.822914Q501.57812 105.260414 502.375 105.916664Q503.14062 106.572914 503.14062 107.74479Q503.14062 109.02604 502.0625 109.96354Q501.0 110.885414 498.89062 110.885414Q496.98438 110.885414 495.875 110.104164Q494.76562 109.322914 494.42188 108.010414ZM510.70312 107.697914L513.15625 108.104164Q512.6875 109.46354 511.65625 110.18229Q510.64062 110.885414 509.09375 110.885414Q506.65625 110.885414 505.5 109.291664Q504.57812 108.010414 504.57812 106.072914Q504.57812 103.74479 505.78125 102.43229Q507.0 101.11979 508.85938 101.11979Q510.9375 101.11979 512.1406 102.49479Q513.34375 103.86979 513.2969 106.71354L507.10938 106.71354Q507.125 107.80729 507.6875 108.416664Q508.26562 109.02604 509.125 109.02604Q509.70312 109.02604 510.09375 108.71354Q510.5 108.40104 510.70312 107.697914ZM510.84375 105.197914Q510.8125 104.11979 510.28125 103.572914Q509.75 103.010414 509.0 103.010414Q508.1875 103.010414 507.67188 103.604164Q507.14062 104.18229 507.14062 105.197914L510.84375 105.197914ZM520.5781 101.33854L520.5781 103.30729L518.8906 103.30729L518.8906 107.05729Q518.8906 108.197914 518.9375 108.40104Q518.9844 108.58854 519.15625 108.71354Q519.3281 108.822914 519.5781 108.822914Q519.90625 108.822914 520.5625 108.58854L520.78125 110.510414Q519.90625 110.885414 518.8281 110.885414Q518.15625 110.885414 517.6094 110.666664Q517.0781 110.43229 516.8281 110.072914Q516.5781 109.71354 516.4844 109.104164Q516.40625 108.68229 516.40625 107.36979L516.40625 103.30729L515.2656 103.30729L515.2656 101.33854L516.40625 101.33854L516.40625 99.479164L518.8906 98.041664L518.8906 101.33854L520.5781 101.33854Z" fill-rule="nonzero"/><path fill="#ea4335" d="M537.0 99.166664C537.0 98.61438 537.4477 98.166664 538.0 98.166664L548.0 98.166664C548.5523 98.166664 549.0 98.61438 549.0 99.166664L549.0 109.166664C549.0 109.71895 548.5523 110.166664 548.0 110.166664L538.0 110.166664C537.4477 110.166664 537.0 109.71895 537.0 109.166664Z" fill-rule="nonzero"/><path fill="#1a1a1a" d="M566.4375 104.08854L564.0 104.52604Q563.875 103.80729 563.4375 103.43229Q563.0 103.05729 562.3125 103.05729Q561.3906 103.05729 560.8281 103.697914Q560.28125 104.33854 560.28125 105.83854Q560.28125 107.49479 560.84375 108.18229Q561.40625 108.86979 562.34375 108.86979Q563.0469 108.86979 563.4844 108.46354Q563.9375 108.05729 564.125 107.08854L566.5469 107.49479Q566.1719 109.166664 565.09375 110.02604Q564.03125 110.885414 562.2344 110.885414Q560.1875 110.885414 558.96875 109.58854Q557.75 108.291664 557.75 106.010414Q557.75 103.697914 558.96875 102.416664Q560.1875 101.11979 562.28125 101.11979Q563.9844 101.11979 564.9844 101.854164Q565.9844 102.58854 566.4375 104.08854ZM574.4375 110.666664L574.4375 109.27604Q573.9219 110.010414 573.09375 110.447914Q572.2656 110.885414 571.34375 110.885414Q570.40625 110.885414 569.65625 110.479164Q568.90625 110.05729 568.5625 109.30729Q568.2344 108.55729 568.2344 107.24479L568.2344 101.33854L570.7031 101.33854L570.7031 105.61979Q570.7031 107.58854 570.84375 108.041664Q570.9844 108.479164 571.34375 108.74479Q571.7031 108.99479 572.25 108.99479Q572.8906 108.99479 573.3906 108.65104Q573.8906 108.30729 574.0781 107.791664Q574.2656 107.27604 574.2656 105.27604L574.2656 101.33854L576.7344 101.33854L576.7344 110.666664L574.4375 110.666664ZM581.65625 110.666664L579.1875 110.666664L579.1875 101.33854L581.4844 101.33854L581.4844 102.666664Q582.0625 101.71354 582.53125 101.416664Q583.0156 101.11979 583.6094 101.11979Q584.4531 101.11979 585.2344 101.58854L584.46875 103.74479Q583.84375 103.33854 583.3125 103.33854Q582.7969 103.33854 582.4219 103.61979Q582.0625 103.90104 581.8594 104.65104Q581.65625 105.40104 581.65625 107.77604L581.65625 110.666664ZM585.4219 108.010414L587.90625 107.61979Q588.0625 108.33854 588.5469 108.71354Q589.03125 109.08854 589.8906 109.08854Q590.8594 109.08854 591.34375 108.74479Q591.65625 108.49479 591.65625 108.08854Q591.65625 107.80729 591.4844 107.61979Q591.2969 107.447914 590.65625 107.291664Q587.6719 106.635414 586.875 106.08854Q585.7656 105.33854 585.7656 103.979164Q585.7656 102.77604 586.71875 101.947914Q587.6875 101.11979 589.6875 101.11979Q591.6094 101.11979 592.53125 101.74479Q593.46875 102.36979 593.8281 103.58854L591.5 104.02604Q591.34375 103.479164 590.9219 103.197914Q590.5156 102.90104 589.7344 102.90104Q588.7656 102.90104 588.34375 103.166664Q588.0625 103.36979 588.0625 103.666664Q588.0625 103.93229 588.3125 104.11979Q588.6406 104.36979 590.6094 104.822914Q592.5781 105.260414 593.375 105.916664Q594.1406 106.572914 594.1406 107.74479Q594.1406 109.02604 593.0625 109.96354Q592.0 110.885414 589.8906 110.885414Q587.9844 110.885414 586.875 110.104164Q585.7656 109.322914 585.4219 108.010414ZM595.71875 105.86979Q595.71875 104.635414 596.3281 103.49479Q596.9375 102.33854 598.0469 101.729164Q599.15625 101.11979 600.53125 101.11979Q602.6406 101.11979 604.0 102.49479Q605.3594 103.86979 605.3594 105.979164Q605.3594 108.08854 603.9844 109.49479Q602.625 110.885414 600.5469 110.885414Q599.2656 110.885414 598.09375 110.30729Q596.9375 109.71354 596.3281 108.604164Q595.71875 107.479164 595.71875 105.86979ZM598.25 105.99479Q598.25 107.385414 598.90625 108.135414Q599.5781 108.86979 600.53125 108.86979Q601.5 108.86979 602.15625 108.135414Q602.8125 107.385414 602.8125 105.979164Q602.8125 104.604164 602.15625 103.86979Q601.5 103.135414 600.53125 103.135414Q599.5781 103.135414 598.90625 103.86979Q598.25 104.604164 598.25 105.99479ZM609.65625 110.666664L607.1875 110.666664L607.1875 101.33854L609.4844 101.33854L609.4844 102.666664Q610.0625 101.71354 610.53125 101.416664Q611.0156 101.11979 611.6094 101.11979Q612.4531 101.11979 613.2344 101.58854L612.46875 103.74479Q611.84375 103.33854 611.3125 103.33854Q610.7969 103.33854 610.4219 103.61979Q610.0625 103.90104 609.8594 104.65104Q609.65625 105.40104 609.65625 107.77604L609.65625 110.666664Z" fill-rule="nonzero"/><path fill="#757575" d="M34.225 64.6L34.225 38.834373L42.56875 38.834373Q47.31875 38.834373 48.75625 39.209373Q50.975 39.803123 52.459373 41.740623Q53.959373 43.678123 53.959373 46.75625Q53.959373 49.13125 53.1 50.75625Q52.240623 52.365623 50.9125 53.2875Q49.584373 54.209373 48.209373 54.50625Q46.35 54.88125 42.81875 54.88125L39.428123 54.88125L39.428123 64.6L34.225 64.6ZM39.428123 43.19375L39.428123 50.50625L42.271873 50.50625Q45.35 50.50625 46.38125 50.1Q47.428123 49.69375 48.00625 48.834373Q48.6 47.975 48.6 46.834373Q48.6 45.428123 47.771873 44.521873Q46.94375 43.6 45.678123 43.365623Q44.75625 43.19375 41.94375 43.19375L39.428123 43.19375ZM61.88125 51.63125L57.396873 50.81875Q58.146873 48.115623 59.990623 46.81875Q61.834373 45.50625 65.475 45.50625Q68.7875 45.50625 70.39687 46.2875Q72.02187 47.06875 72.67812 48.271873Q73.33437 49.475 73.33437 52.69375L73.2875 58.459373Q73.2875 60.928123 73.52187 62.1Q73.75625 63.25625 74.4125 64.6L69.52187 64.6Q69.33437 64.1 69.05312 63.146873Q68.92812 62.69375 68.86562 62.553123Q67.6 63.7875 66.1625 64.4125Q64.725 65.02187 63.084373 65.02187Q60.209373 65.02187 58.5375 63.459373Q56.88125 61.896873 56.88125 59.50625Q56.88125 57.9125 57.63125 56.678123Q58.396873 55.44375 59.75625 54.7875Q61.115623 54.115623 63.69375 53.63125Q67.14687 52.975 68.49062 52.4125L68.49062 51.928123Q68.49062 50.50625 67.7875 49.896873Q67.08437 49.2875 65.13125 49.2875Q63.803123 49.2875 63.06875 49.803123Q62.334373 50.31875 61.88125 51.63125ZM68.49062 55.63125Q67.5375 55.94375 65.475 56.396873Q63.428123 56.834373 62.7875 57.25625Q61.81875 57.94375 61.81875 58.990623Q61.81875 60.021873 62.584373 60.7875Q63.365623 61.5375 64.56875 61.5375Q65.89687 61.5375 67.11562 60.6625Q68.00625 59.990623 68.2875 59.021873Q68.49062 58.396873 68.49062 56.615623L68.49062 55.63125ZM78.725 65.83437L84.36562 66.52187Q84.50625 67.50625 85.02187 67.86562Q85.725 68.39687 87.24062 68.39687Q89.1625 68.39687 90.13125 67.81875Q90.7875 67.42812 91.11562 66.56875Q91.35 65.95937 91.35 64.30312L91.35 61.56875Q89.13125 64.6 85.75625 64.6Q81.99062 64.6 79.80312 61.4125Q78.08437 58.896873 78.08437 55.1625Q78.08437 50.459373 80.33437 47.990623Q82.6 45.50625 85.95937 45.50625Q89.4125 45.50625 91.6625 48.553123L91.6625 45.928123L96.2875 45.928123L96.2875 62.678123Q96.2875 65.99062 95.74062 67.61562Q95.19375 69.25625 94.20937 70.17812Q93.225 71.11562 91.58437 71.64687Q89.94375 72.17812 87.42812 72.17812Q82.67812 72.17812 80.69375 70.55312Q78.70937 68.92812 78.70937 66.42812Q78.70937 66.17812 78.725 65.83437ZM83.14687 54.88125Q83.14687 57.85 84.2875 59.240623Q85.44375 60.615623 87.13125 60.615623Q88.94375 60.615623 90.19375 59.19375Q91.44375 57.771873 91.44375 55.00625Q91.44375 52.1 90.24062 50.69375Q89.05312 49.2875 87.225 49.2875Q85.44375 49.2875 84.2875 50.678123Q83.14687 52.053123 83.14687 54.88125ZM111.99062 58.6625L116.9125 59.490623Q115.975 62.19375 113.9125 63.615623Q111.86562 65.02187 108.80312 65.02187Q103.92812 65.02187 101.58437 61.834373Q99.74062 59.2875 99.74062 55.4125Q99.74062 50.771873 102.1625 48.146873Q104.6 45.50625 108.30312 45.50625Q112.475 45.50625 114.88125 48.25625Q117.2875 51.00625 117.17812 56.69375L104.80312 56.69375Q104.86562 58.88125 106.00625 60.115623Q107.14687 61.334373 108.85 61.334373Q110.00625 61.334373 110.7875 60.709373Q111.58437 60.06875 111.99062 58.6625ZM112.27187 53.6625Q112.225 51.521873 111.1625 50.4125Q110.11562 49.2875 108.6 49.2875Q106.99062 49.2875 105.92812 50.459373Q104.88125 51.646873 104.89687 53.6625L112.27187 53.6625ZM121.17812 43.396873L121.17812 38.834373L126.13125 38.834373L126.13125 43.396873L121.17812 43.396873ZM121.17812 64.6L121.17812 45.928123L126.13125 45.928123L126.13125 64.6L121.17812 64.6ZM147.1625 64.6L142.225 64.6L142.225 55.06875Q142.225 52.053123 141.9125 51.1625Q141.6 50.271873 140.88126 49.7875Q140.1625 49.2875 139.1625 49.2875Q137.88126 49.2875 136.86563 49.990623Q135.85 50.69375 135.45938 51.865623Q135.08438 53.021873 135.08438 56.146873L135.08438 64.6L130.14688 64.6L130.14688 45.928123L134.74063 45.928123L134.74063 48.678123Q137.17813 45.50625 140.89688 45.50625Q142.52188 45.50625 143.86563 46.1Q145.225 46.69375 145.9125 47.615623Q146.61563 48.521873 146.88126 49.678123Q147.1625 50.834373 147.1625 52.990623L147.1625 64.6ZM150.725 65.83437L156.36563 66.52187Q156.50626 67.50625 157.02188 67.86562Q157.725 68.39687 159.24063 68.39687Q161.1625 68.39687 162.13126 67.81875Q162.7875 67.42812 163.11563 66.56875Q163.35 65.95937 163.35 64.30312L163.35 61.56875Q161.13126 64.6 157.75626 64.6Q153.99063 64.6 151.80313 61.4125Q150.08438 58.896873 150.08438 55.1625Q150.08438 50.459373 152.33438 47.990623Q154.6 45.50625 157.95938 45.50625Q161.4125 45.50625 163.6625 48.553123L163.6625 45.928123L168.2875 45.928123L168.2875 62.678123Q168.2875 65.99062 167.74063 67.61562Q167.19376 69.25625 166.20938 70.17812Q165.225 71.11562 163.58438 71.64687Q161.94376 72.17812 159.42813 72.17812Q154.67813 72.17812 152.69376 70.55312Q150.70938 68.92812 150.70938 66.42812Q150.70938 66.17812 150.725 65.83437ZM155.14688 54.88125Q155.14688 57.85 156.2875 59.240623Q157.44376 60.615623 159.13126 60.615623Q160.94376 60.615623 162.19376 59.19375Q163.44376 57.771873 163.44376 55.00625Q163.44376 52.1 162.24063 50.69375Q161.05313 49.2875 159.225 49.2875Q157.44376 49.2875 156.2875 50.678123Q155.14688 52.053123 155.14688 54.88125ZM183.225 64.6L183.225 38.834373L191.56876 38.834373Q196.31876 38.834373 197.75626 39.209373Q199.975 39.803123 201.45938 41.740623Q202.95938 43.678123 202.95938 46.75625Q202.95938 49.13125 202.1 50.75625Q201.24063 52.365623 199.9125 53.2875Q198.58438 54.209373 197.20938 54.50625Q195.35 54.88125 191.81876 54.88125L188.42813 54.88125L188.42813 64.6L183.225 64.6ZM188.42813 43.19375L188.42813 50.50625L191.27188 50.50625Q194.35 50.50625 195.38126 50.1Q196.42813 49.69375 197.00626 48.834373Q197.6 47.975 197.6 46.834373Q197.6 45.428123 196.77188 44.521873Q195.94376 43.6 194.67813 43.365623Q193.75626 43.19375 190.94376 43.19375L188.42813 43.19375ZM217.99063 58.6625L222.9125 59.490623Q221.975 62.19375 219.9125 63.615623Q217.86563 65.02187 214.80313 65.02187Q209.92813 65.02187 207.58438 61.834373Q205.74063 59.2875 205.74063 55.4125Q205.74063 50.771873 208.1625 48.146873Q210.6 45.50625 214.30313 45.50625Q218.475 45.50625 220.88126 48.25625Q223.2875 51.00625 223.17813 56.69375L210.80313 56.69375Q210.86563 58.88125 212.00626 60.115623Q213.14688 61.334373 214.85 61.334373Q216.00626 61.334373 216.7875 60.709373Q217.58438 60.06875 217.99063 58.6625ZM218.27188 53.6625Q218.225 51.521873 217.1625 50.4125Q216.11563 49.2875 214.6 49.2875Q212.99063 49.2875 211.92813 50.459373Q210.88126 51.646873 210.89688 53.6625L218.27188 53.6625ZM231.9125 64.6L226.975 64.6L226.975 45.928123L231.56876 45.928123L231.56876 48.584373Q232.74063 46.709373 233.67813 46.115623Q234.61563 45.50625 235.81876 45.50625Q237.50626 45.50625 239.06876 46.44375L237.5375 50.740623Q236.2875 49.94375 235.225 49.94375Q234.17813 49.94375 233.45938 50.521873Q232.74063 51.084373 232.31876 52.584373Q231.9125 54.06875 231.9125 58.834373L231.9125 64.6ZM239.02188 45.928123L241.77188 45.928123L241.77188 44.521873Q241.77188 42.1625 242.27188 41.00625Q242.77188 39.85 244.11563 39.13125Q245.45938 38.396873 247.50626 38.396873Q249.61563 38.396873 251.64688 39.021873L250.975 42.475Q249.80313 42.19375 248.70938 42.19375Q247.63126 42.19375 247.1625 42.69375Q246.70938 43.19375 246.70938 44.615623L246.70938 45.928123L250.39688 45.928123L250.39688 49.81875L246.70938 49.81875L246.70938 64.6L241.77188 64.6L241.77188 49.81875L239.02188 49.81875L239.02188 45.928123ZM253.0375 55.00625Q253.0375 52.5375 254.25626 50.240623Q255.475 47.928123 257.69376 46.725Q259.9125 45.50625 262.6625 45.50625Q266.89688 45.50625 269.6 48.25625Q272.30313 51.00625 272.30313 55.209373Q272.30313 59.44375 269.56876 62.240623Q266.83438 65.02187 262.69376 65.02187Q260.13126 65.02187 257.80313 63.865623Q255.475 62.69375 254.25626 60.459373Q253.0375 58.225 253.0375 55.00625ZM258.1 55.271873Q258.1 58.0375 259.4125 59.521873Q260.74063 60.990623 262.67813 60.990623Q264.61563 60.990623 265.9125 59.521873Q267.225 58.0375 267.225 55.225Q267.225 52.490623 265.9125 51.021873Q264.61563 49.5375 262.67813 49.5375Q260.74063 49.5375 259.4125 51.021873Q258.1 52.490623 258.1 55.271873ZM280.9125 64.6L275.975 64.6L275.975 45.928123L280.56876 45.928123L280.56876 48.584373Q281.74063 46.709373 282.67813 46.115623Q283.61563 45.50625 284.81876 45.50625Q286.50626 45.50625 288.06876 46.44375L286.5375 50.740623Q285.2875 49.94375 284.225 49.94375Q283.17813 49.94375 282.45938 50.521873Q281.74063 51.084373 281.31876 52.584373Q280.9125 54.06875 280.9125 58.834373L280.9125 64.6ZM289.81876 45.928123L294.36563 45.928123L294.36563 48.475Q296.81876 45.50625 300.19376 45.50625Q301.975 45.50625 303.2875 46.25625Q304.61563 46.990623 305.45938 48.475Q306.69376 46.990623 308.11563 46.25625Q309.5375 45.50625 311.1625 45.50625Q313.20938 45.50625 314.63126 46.35Q316.05313 47.178123 316.75626 48.803123Q317.27188 49.990623 317.27188 52.6625L317.27188 64.6L312.33438 64.6L312.33438 53.928123Q312.33438 51.146873 311.81876 50.35Q311.13126 49.2875 309.70938 49.2875Q308.67813 49.2875 307.75626 49.928123Q306.85 50.553123 306.44376 51.771873Q306.0375 52.990623 306.0375 55.63125L306.0375 64.6L301.1 64.6L301.1 54.365623Q301.1 51.646873 300.83438 50.865623Q300.56876 50.06875 300.00626 49.678123Q299.45938 49.2875 298.52188 49.2875Q297.38126 49.2875 296.45938 49.9125Q295.55313 50.521873 295.14688 51.678123Q294.75626 52.834373 294.75626 55.521873L294.75626 64.6L289.81876 64.6L289.81876 45.928123ZM326.88126 51.63125L322.39688 50.81875Q323.14688 48.115623 324.99063 46.81875Q326.83438 45.50625 330.475 45.50625Q333.7875 45.50625 335.39688 46.2875Q337.02188 47.06875 337.67813 48.271873Q338.33438 49.475 338.33438 52.69375L338.2875 58.459373Q338.2875 60.928123 338.52188 62.1Q338.75626 63.25625 339.4125 64.6L334.52188 64.6Q334.33438 64.1 334.05313 63.146873Q333.92813 62.69375 333.86563 62.553123Q332.6 63.7875 331.1625 64.4125Q329.725 65.02187 328.08438 65.02187Q325.20938 65.02187 323.5375 63.459373Q321.88126 61.896873 321.88126 59.50625Q321.88126 57.9125 322.63126 56.678123Q323.39688 55.44375 324.75626 54.7875Q326.11563 54.115623 328.69376 53.63125Q332.14688 52.975 333.49063 52.4125L333.49063 51.928123Q333.49063 50.50625 332.7875 49.896873Q332.08438 49.2875 330.13126 49.2875Q328.80313 49.2875 328.06876 49.803123Q327.33438 50.31875 326.88126 51.63125ZM333.49063 55.63125Q332.5375 55.94375 330.475 56.396873Q328.42813 56.834373 327.7875 57.25625Q326.81876 57.94375 326.81876 58.990623Q326.81876 60.021873 327.58438 60.7875Q328.36563 61.5375 329.56876 61.5375Q330.89688 61.5375 332.11563 60.6625Q333.00626 59.990623 333.2875 59.021873Q333.49063 58.396873 333.49063 56.615623L333.49063 55.63125ZM361.1625 64.6L356.225 64.6L356.225 55.06875Q356.225 52.053123 355.9125 51.1625Q355.6 50.271873 354.88126 49.7875Q354.1625 49.2875 353.1625 49.2875Q351.88126 49.2875 350.86563 49.990623Q349.85 50.69375 349.45938 51.865623Q349.08438 53.021873 349.08438 56.146873L349.08438 64.6L344.14688 64.6L344.14688 45.928123L348.74063 45.928123L348.74063 48.678123Q351.17813 45.50625 354.89688 45.50625Q356.52188 45.50625 357.86563 46.1Q359.225 46.69375 359.9125 47.615623Q360.61563 48.521873 360.88126 49.678123Q361.1625 50.834373 361.1625 52.990623L361.1625 64.6ZM381.45938 51.44375L376.6 52.334373Q376.35 50.865623 375.475 50.13125Q374.6 49.396873 373.225 49.396873Q371.36563 49.396873 370.27188 50.678123Q369.17813 51.94375 369.17813 54.928123Q369.17813 58.25625 370.2875 59.63125Q371.4125 60.990623 373.2875 60.990623Q374.69376 60.990623 375.58438 60.19375Q376.49063 59.396873 376.85 57.44375L381.70938 58.271873Q380.95938 61.615623 378.80313 63.31875Q376.6625 65.02187 373.05313 65.02187Q368.95938 65.02187 366.52188 62.44375Q364.1 59.85 364.1 55.2875Q364.1 50.6625 366.5375 48.084373Q368.975 45.50625 373.14688 45.50625Q376.55313 45.50625 378.56876 46.975Q380.58438 48.44375 381.45938 51.44375ZM395.99063 58.6625L400.9125 59.490623Q399.975 62.19375 397.9125 63.615623Q395.86563 65.02187 392.80313 65.02187Q387.92813 65.02187 385.58438 61.834373Q383.74063 59.2875 383.74063 55.4125Q383.74063 50.771873 386.1625 48.146873Q388.6 45.50625 392.30313 45.50625Q396.475 45.50625 398.88126 48.25625Q401.2875 51.00625 401.17813 56.69375L388.80313 56.69375Q388.86563 58.88125 390.00626 60.115623Q391.14688 61.334373 392.85 61.334373Q394.00626 61.334373 394.7875 60.709373Q395.58438 60.06875 395.99063 58.6625ZM396.27188 53.6625Q396.225 51.521873 395.1625 50.4125Q394.11563 49.2875 392.6 49.2875Q390.99063 49.2875 389.92813 50.459373Q388.88126 51.646873 388.89688 53.6625L396.27188 53.6625Z" fill-rule="nonzero"/></svg>