<svg version="1.1" viewBox="0.0 0.0 1021.0 632.0" fill="none" stroke="none" stroke-linecap="square" stroke-miterlimit="10" width="1021" height="632" xmlns:xlink="http://www.w3.org/1999/xlink" xmlns="http://www.w3.org/2000/svg"><path fill="#ffffff" d="M0 0L1021.0 0L1021.0 632.0L0 632.0L0 0Z" fill-rule="nonzero"/><path stroke="#333333" stroke-width="1.0" stroke-linecap="butt" d="M104.5 548.5L989.5 548.5" fill-rule="nonzero"/><path stroke="#cccccc" stroke-width="1.0" stroke-linecap="butt" d="M104.5 446.5L989.5 446.5" fill-rule="nonzero"/><path stroke="#cccccc" stroke-width="1.0" stroke-linecap="butt" d="M104.5 345.5L989.5 345.5" fill-rule="nonzero"/><path stroke="#cccccc" stroke-width="1.0" stroke-linecap="butt" d="M104.5 244.5L989.5 244.5" fill-rule="nonzero"/><path stroke="#cccccc" stroke-width="1.0" stroke-linecap="butt" d="M104.5 142.5L989.5 142.5" fill-rule="nonzero"/><clipPath id="id_0"><path d="M104.6 142.73334L989.4 142.73334L989.4 548.4L104.6 548.4L104.6 142.73334Z" clip-rule="nonzero"/></clipPath><path stroke="#000000" stroke-width="2.0" stroke-linecap="butt" stroke-opacity="0.0" clip-path="url(#id_0)" d="M185.0 548.0L148.0 548.0L148.0 545.0C148.0 543.89545 148.89543 543.0 150.0 543.0L183.0 543.0C184.10457 543.0 185.0 543.89545 185.0 545.0Z" fill-rule="nonzero"/><path fill="#4285f4" clip-path="url(#id_0)" d="M185.0 548.0L148.0 548.0L148.0 545.0C148.0 543.89545 148.89543 543.0 150.0 543.0L183.0 543.0C184.10457 543.0 185.0 543.89545 185.0 545.0Z" fill-rule="nonzero"/><path stroke="#000000" stroke-width="2.0" stroke-linecap="butt" stroke-opacity="0.0" clip-path="url(#id_0)" d="M305.0 548.0L268.0 548.0L268.0 543.0C268.0 541.89545 268.89542 541.0 270.0 541.0L303.0 541.0C304.10458 541.0 305.0 541.89545 305.0 543.0Z" fill-rule="nonzero"/><path fill="#4285f4" clip-path="url(#id_0)" d="M305.0 548.0L268.0 548.0L268.0 543.0C268.0 541.89545 268.89542 541.0 270.0 541.0L303.0 541.0C304.10458 541.0 305.0 541.89545 305.0 543.0Z" fill-rule="nonzero"/><path stroke="#000000" stroke-width="2.0" stroke-linecap="butt" stroke-opacity="0.0" clip-path="url(#id_0)" d="M426.0 548.0L389.0 548.0L389.0 534.0C389.0 532.89545 389.89542 532.0 391.0 532.0L424.0 532.0C425.10458 532.0 426.0 532.89545 426.0 534.0Z" fill-rule="nonzero"/><path fill="#4285f4" clip-path="url(#id_0)" d="M426.0 548.0L389.0 548.0L389.0 534.0C389.0 532.89545 389.89542 532.0 391.0 532.0L424.0 532.0C425.10458 532.0 426.0 532.89545 426.0 534.0Z" fill-rule="nonzero"/><path stroke="#000000" stroke-width="2.0" stroke-linecap="butt" stroke-opacity="0.0" clip-path="url(#id_0)" d="M546.0 548.0L509.0 548.0L509.0 517.0C509.0 515.89545 509.89542 515.0 511.0 515.0L544.0 515.0C545.10455 515.0 546.0 515.89545 546.0 517.0Z" fill-rule="nonzero"/><path fill="#4285f4" clip-path="url(#id_0)" d="M546.0 548.0L509.0 548.0L509.0 517.0C509.0 515.89545 509.89542 515.0 511.0 515.0L544.0 515.0C545.10455 515.0 546.0 515.89545 546.0 517.0Z" fill-rule="nonzero"/><path stroke="#000000" stroke-width="2.0" stroke-linecap="butt" stroke-opacity="0.0" clip-path="url(#id_0)" d="M666.0 548.0L629.0 548.0L629.0 483.0C629.0 481.89542 629.89545 481.0 631.0 481.0L664.0 481.0C665.10455 481.0 666.0 481.89542 666.0 483.0Z" fill-rule="nonzero"/><path fill="#4285f4" clip-path="url(#id_0)" d="M666.0 548.0L629.0 548.0L629.0 483.0C629.0 481.89542 629.89545 481.0 631.0 481.0L664.0 481.0C665.10455 481.0 666.0 481.89542 666.0 483.0Z" fill-rule="nonzero"/><path stroke="#000000" stroke-width="2.0" stroke-linecap="butt" stroke-opacity="0.0" clip-path="url(#id_0)" d="M787.0 548.0L750.0 548.0L750.0 376.0C750.0 374.89542 750.89545 374.0 752.0 374.0L785.0 374.0C786.10455 374.0 787.0 374.89542 787.0 376.0Z" fill-rule="nonzero"/><path fill="#4285f4" clip-path="url(#id_0)" d="M787.0 548.0L750.0 548.0L750.0 376.0C750.0 374.89542 750.89545 374.0 752.0 374.0L785.0 374.0C786.10455 374.0 787.0 374.89542 787.0 376.0Z" fill-rule="nonzero"/><path stroke="#000000" stroke-width="2.0" stroke-linecap="butt" stroke-opacity="0.0" clip-path="url(#id_0)" d="M907.0 548.0L870.0 548.0L870.0 215.0C870.0 213.89543 870.89545 213.0 872.0 213.0L905.0 213.0C906.10455 213.0 907.0 213.89543 907.0 215.0Z" fill-rule="nonzero"/><path fill="#4285f4" clip-path="url(#id_0)" d="M907.0 548.0L870.0 548.0L870.0 215.0C870.0 213.89543 870.89545 213.0 872.0 213.0L905.0 213.0C906.10455 213.0 907.0 213.89543 907.0 215.0Z" fill-rule="nonzero"/><path stroke="#000000" stroke-width="2.0" stroke-linecap="butt" stroke-opacity="0.0" clip-path="url(#id_0)" d="M224.0 548.0L187.0 548.0L187.0 548.0C187.0 548.0 187.0 548.0 187.0 548.0L224.0 548.0C224.0 548.0 224.0 548.0 224.0 548.0Z" fill-rule="nonzero"/><path fill="#ea4335" clip-path="url(#id_0)" d="M224.0 548.0L187.0 548.0L187.0 548.0C187.0 548.0 187.0 548.0 187.0 548.0L224.0 548.0C224.0 548.0 224.0 548.0 224.0 548.0Z" fill-rule="nonzero"/><path stroke="#000000" stroke-width="2.0" stroke-linecap="butt" stroke-opacity="0.0" clip-path="url(#id_0)" d="M344.0 548.0L307.0 548.0L307.0 547.5C307.0 547.2239 307.22385 547.0 307.5 547.0L343.5 547.0C343.77615 547.0 344.0 547.2239 344.0 547.5Z" fill-rule="nonzero"/><path fill="#ea4335" clip-path="url(#id_0)" d="M344.0 548.0L307.0 548.0L307.0 547.5C307.0 547.2239 307.22385 547.0 307.5 547.0L343.5 547.0C343.77615 547.0 344.0 547.2239 344.0 547.5Z" fill-rule="nonzero"/><path stroke="#000000" stroke-width="2.0" stroke-linecap="butt" stroke-opacity="0.0" clip-path="url(#id_0)" d="M465.0 548.0L428.0 548.0L428.0 547.0C428.0 546.4477 428.44772 546.0 429.0 546.0L464.0 546.0C464.55228 546.0 465.0 546.4477 465.0 547.0Z" fill-rule="nonzero"/><path fill="#ea4335" clip-path="url(#id_0)" d="M465.0 548.0L428.0 548.0L428.0 547.0C428.0 546.4477 428.44772 546.0 429.0 546.0L464.0 546.0C464.55228 546.0 465.0 546.4477 465.0 547.0Z" fill-rule="nonzero"/><path stroke="#000000" stroke-width="2.0" stroke-linecap="butt" stroke-opacity="0.0" clip-path="url(#id_0)" d="M585.0 548.0L548.0 548.0L548.0 546.5C548.0 545.6716 548.6716 545.0 549.5 545.0L583.5 545.0C584.3284 545.0 585.0 545.6716 585.0 546.5Z" fill-rule="nonzero"/><path fill="#ea4335" clip-path="url(#id_0)" d="M585.0 548.0L548.0 548.0L548.0 546.5C548.0 545.6716 548.6716 545.0 549.5 545.0L583.5 545.0C584.3284 545.0 585.0 545.6716 585.0 546.5Z" fill-rule="nonzero"/><path stroke="#000000" stroke-width="2.0" stroke-linecap="butt" stroke-opacity="0.0" clip-path="url(#id_0)" d="M705.0 548.0L668.0 548.0L668.0 542.0C668.0 540.89545 668.89545 540.0 670.0 540.0L703.0 540.0C704.10455 540.0 705.0 540.89545 705.0 542.0Z" fill-rule="nonzero"/><path fill="#ea4335" clip-path="url(#id_0)" d="M705.0 548.0L668.0 548.0L668.0 542.0C668.0 540.89545 668.89545 540.0 670.0 540.0L703.0 540.0C704.10455 540.0 705.0 540.89545 705.0 542.0Z" fill-rule="nonzero"/><path stroke="#000000" stroke-width="2.0" stroke-linecap="butt" stroke-opacity="0.0" clip-path="url(#id_0)" d="M826.0 548.0L789.0 548.0L789.0 532.0C789.0 530.89545 789.89545 530.0 791.0 530.0L824.0 530.0C825.10455 530.0 826.0 530.89545 826.0 532.0Z" fill-rule="nonzero"/><path fill="#ea4335" clip-path="url(#id_0)" d="M826.0 548.0L789.0 548.0L789.0 532.0C789.0 530.89545 789.89545 530.0 791.0 530.0L824.0 530.0C825.10455 530.0 826.0 530.89545 826.0 532.0Z" fill-rule="nonzero"/><path stroke="#000000" stroke-width="2.0" stroke-linecap="butt" stroke-opacity="0.0" clip-path="url(#id_0)" d="M946.0 548.0L909.0 548.0L909.0 509.0C909.0 507.89542 909.89545 507.0 911.0 507.0L944.0 507.0C945.10455 507.0 946.0 507.89542 946.0 509.0Z" fill-rule="nonzero"/><path fill="#ea4335" clip-path="url(#id_0)" d="M946.0 548.0L909.0 548.0L909.0 509.0C909.0 507.89542 909.89545 507.0 911.0 507.0L944.0 507.0C945.10455 507.0 946.0 507.89542 946.0 509.0Z" fill-rule="nonzero"/><path fill="#000000" d="M534.28125 597.4L534.28125 591.1813L535.2344 591.1813L535.2344 592.1188Q535.59375 591.4625 535.8906 591.2594Q536.2031 591.04065 536.5781 591.04065Q537.1094 591.04065 537.65625 591.3688L537.2969 592.35315Q536.90625 592.1188 536.53125 592.1188Q536.1719 592.1188 535.8906 592.3375Q535.625 592.54065 535.5156 592.91565Q535.3281 593.47815 535.3281 594.1344L535.3281 597.4L534.28125 597.4ZM537.90625 594.29065Q537.90625 592.5563 538.8594 591.72815Q539.65625 591.04065 540.8125 591.04065Q542.09375 591.04065 542.90625 591.8844Q543.7344 592.7125 543.7344 594.1969Q543.7344 595.4 543.375 596.0875Q543.0156 596.775 542.3125 597.16565Q541.625 597.54065 540.8125 597.54065Q539.5156 597.54065 538.7031 596.7125Q537.90625 595.8688 537.90625 594.29065ZM538.9844 594.29065Q538.9844 595.47815 539.5 596.0719Q540.03125 596.66565 540.8125 596.66565Q541.6094 596.66565 542.125 596.0719Q542.6406 595.47815 542.6406 594.2594Q542.6406 593.10315 542.1094 592.5094Q541.59375 591.91565 540.8125 591.91565Q540.03125 591.91565 539.5 592.5094Q538.9844 593.0875 538.9844 594.29065ZM546.4375 597.4L544.53125 591.1813L545.625 591.1813L546.6094 594.775L546.9844 596.10315Q547.0156 596.0094 547.3125 594.8219L548.2969 591.1813L549.375 591.1813L550.3125 594.79065L550.625 595.97815L550.9844 594.775L552.0469 591.1813L553.0781 591.1813L551.125 597.4L550.03125 597.4L549.0469 593.66565L548.7969 592.6188L547.5469 597.4L546.4375 597.4ZM553.875 595.54065L554.90625 595.3844Q555.0 596.0094 555.3906 596.3375Q555.7969 596.66565 556.53125 596.66565Q557.25 596.66565 557.59375 596.3844Q557.9531 596.0875 557.9531 595.6813Q557.9531 595.3219 557.6406 595.1188Q557.4219 594.97815 556.5625 594.7594Q555.40625 594.4625 554.9531 594.2594Q554.5156 594.04065 554.28125 593.66565Q554.0469 593.29065 554.0469 592.8219Q554.0469 592.41565 554.2344 592.0563Q554.4219 591.6969 554.75 591.4625Q555.0 591.29065 555.4219 591.16565Q555.84375 591.04065 556.34375 591.04065Q557.0625 591.04065 557.6094 591.2594Q558.1719 591.4625 558.4375 591.8219Q558.7031 592.1813 558.7969 592.775L557.7656 592.91565Q557.7031 592.4469 557.3594 592.1813Q557.03125 591.9 556.40625 591.9Q555.6875 591.9 555.375 592.15Q555.0625 592.3844 555.0625 592.7125Q555.0625 592.91565 555.1875 593.0719Q555.3281 593.2438 555.59375 593.35315Q555.75 593.41565 556.53125 593.6188Q557.65625 593.9313 558.09375 594.1188Q558.53125 594.3063 558.78125 594.66565Q559.03125 595.025 559.03125 595.5719Q559.03125 596.10315 558.71875 596.5719Q558.4219 597.025 557.84375 597.29065Q557.2656 597.54065 556.53125 597.54065Q555.3125 597.54065 554.6719 597.04065Q554.0469 596.525 553.875 595.54065Z" fill-rule="nonzero"/><path fill="#000000" d="M42.600025 360.26978L36.381275 360.26978L36.381275 359.33228L37.256275 359.33228Q36.787525 359.0354 36.5219 358.55103Q36.24065 358.06665 36.24065 357.44165Q36.24065 356.75415 36.5219 356.31665Q36.80315 355.86353 37.318775 355.69165Q36.24065 354.94165 36.24065 353.76978Q36.24065 352.83228 36.756275 352.3479Q37.256275 351.8479 38.3344 351.8479L42.600025 351.8479L42.600025 352.89478L38.67815 352.89478Q38.05315 352.89478 37.7719 353.00415Q37.49065 353.0979 37.318775 353.36353Q37.1469 353.62915 37.1469 354.00415Q37.1469 354.6604 37.5844 355.0979Q38.0219 355.51978 38.99065 355.51978L42.600025 355.51978L42.600025 356.58228L38.55315 356.58228Q37.850025 356.58228 37.506275 356.8479Q37.1469 357.0979 37.1469 357.67603Q37.1469 358.12915 37.381275 358.50415Q37.61565 358.87915 38.068775 359.05103Q38.5219 359.2229 39.36565 359.2229L42.600025 359.2229L42.600025 360.26978ZM40.74065 349.69165L40.5844 348.6604Q41.2094 348.56665 41.537525 348.17603Q41.86565 347.76978 41.86565 347.0354Q41.86565 346.31665 41.5844 345.9729Q41.287525 345.61353 40.881275 345.61353Q40.5219 345.61353 40.318775 345.92603Q40.17815 346.14478 39.9594 347.00415Q39.662525 348.1604 39.4594 348.61353Q39.24065 349.05103 38.86565 349.2854Q38.49065 349.51978 38.0219 349.51978Q37.61565 349.51978 37.256275 349.33228Q36.8969 349.14478 36.662525 348.81665Q36.49065 348.56665 36.36565 348.14478Q36.24065 347.7229 36.24065 347.2229Q36.24065 346.50415 36.4594 345.95728Q36.662525 345.39478 37.0219 345.12915Q37.381275 344.86353 37.975025 344.76978L38.11565 345.80103Q37.6469 345.86353 37.381275 346.20728Q37.100025 346.5354 37.100025 347.1604Q37.100025 347.87915 37.350025 348.19165Q37.5844 348.50415 37.912525 348.50415Q38.11565 348.50415 38.2719 348.37915Q38.443775 348.23853 38.55315 347.9729Q38.61565 347.81665 38.818775 347.0354Q39.131275 345.9104 39.318775 345.4729Q39.506275 345.0354 39.86565 344.7854Q40.225025 344.5354 40.7719 344.5354Q41.30315 344.5354 41.7719 344.8479Q42.225025 345.14478 42.49065 345.7229Q42.74065 346.30103 42.74065 347.0354Q42.74065 348.25415 42.24065 348.89478Q41.725025 349.51978 40.74065 349.69165Z" fill-rule="nonzero"/><path fill="#000000" d="M92.1 548.16565Q92.1 546.6344 92.4125 545.7125Q92.725 544.775 93.33437 544.275Q93.95937 543.775 94.89687 543.775Q95.58437 543.775 96.1 544.0563Q96.63125 544.3375 96.975 544.8688Q97.31875 545.3844 97.50625 546.1344Q97.69375 546.8844 97.69375 548.16565Q97.69375 549.6813 97.38125 550.60315Q97.08437 551.525 96.45937 552.04065Q95.85 552.54065 94.89687 552.54065Q93.6625 552.54065 92.94375 551.65Q92.1 550.5875 92.1 548.16565ZM93.17812 548.16565Q93.17812 550.275 93.67812 550.97815Q94.17812 551.6813 94.89687 551.6813Q95.63125 551.6813 96.11562 550.97815Q96.61562 550.275 96.61562 548.16565Q96.61562 546.04065 96.11562 545.35315Q95.63125 544.65 94.88125 544.65Q94.1625 544.65 93.725 545.2594Q93.17812 546.04065 93.17812 548.16565Z" fill-rule="nonzero"/><path fill="#000000" d="M71.1 448.73334L72.20937 448.6396Q72.33437 449.4521 72.77187 449.85834Q73.225 450.2646 73.86562 450.2646Q74.61562 450.2646 75.14687 449.68646Q75.67812 449.10834 75.67812 448.17084Q75.67812 447.2646 75.1625 446.74896Q74.6625 446.2177 73.83437 446.2177Q73.33437 446.2177 72.9125 446.4521Q72.50625 446.68646 72.27187 447.04584L71.2875 446.92084L72.11562 442.5146L76.39687 442.5146L76.39687 443.5146L72.95937 443.5146L72.50625 445.8271Q73.27187 445.2802 74.11562 445.2802Q75.24062 445.2802 76.00625 446.06146Q76.7875 446.8427 76.7875 448.0771Q76.7875 449.23334 76.11562 450.0927Q75.2875 451.12396 73.86562 451.12396Q72.69375 451.12396 71.94375 450.4677Q71.20937 449.81146 71.1 448.73334ZM78.1 446.74896Q78.1 445.2177 78.4125 444.29584Q78.725 443.35834 79.33437 442.85834Q79.95937 442.35834 80.89687 442.35834Q81.58437 442.35834 82.1 442.6396Q82.63125 442.92084 82.975 443.4521Q83.31875 443.9677 83.50625 444.7177Q83.69375 445.4677 83.69375 446.74896Q83.69375 448.2646 83.38125 449.18646Q83.08437 450.10834 82.45937 450.62396Q81.85 451.12396 80.89687 451.12396Q79.6625 451.12396 78.94375 450.23334Q78.1 449.17084 78.1 446.74896ZM79.17812 446.74896Q79.17812 448.85834 79.67812 449.56146Q80.17812 450.2646 80.89687 450.2646Q81.63125 450.2646 82.11562 449.56146Q82.61562 448.85834 82.61562 446.74896Q82.61562 444.62396 82.11562 443.93646Q81.63125 443.23334 80.88125 443.23334Q80.1625 443.23334 79.725 443.8427Q79.17812 444.62396 79.17812 446.74896ZM85.1 446.74896Q85.1 445.2177 85.4125 444.29584Q85.725 443.35834 86.33437 442.85834Q86.95937 442.35834 87.89687 442.35834Q88.58437 442.35834 89.1 442.6396Q89.63125 442.92084 89.975 443.4521Q90.31875 443.9677 90.50625 444.7177Q90.69375 445.4677 90.69375 446.74896Q90.69375 448.2646 90.38125 449.18646Q90.08437 450.10834 89.45937 450.62396Q88.85 451.12396 87.89687 451.12396Q86.6625 451.12396 85.94375 450.23334Q85.1 449.17084 85.1 446.74896ZM86.17812 446.74896Q86.17812 448.85834 86.67812 449.56146Q87.17812 450.2646 87.89687 450.2646Q88.63125 450.2646 89.11562 449.56146Q89.61562 448.85834 89.61562 446.74896Q89.61562 444.62396 89.11562 443.93646Q88.63125 443.23334 87.88125 443.23334Q87.1625 443.23334 86.725 443.8427Q86.17812 444.62396 86.17812 446.74896ZM92.1 446.74896Q92.1 445.2177 92.4125 444.29584Q92.725 443.35834 93.33437 442.85834Q93.95937 442.35834 94.89687 442.35834Q95.58437 442.35834 96.1 442.6396Q96.63125 442.92084 96.975 443.4521Q97.31875 443.9677 97.50625 444.7177Q97.69375 445.4677 97.69375 446.74896Q97.69375 448.2646 97.38125 449.18646Q97.08437 450.10834 96.45937 450.62396Q95.85 451.12396 94.89687 451.12396Q93.6625 451.12396 92.94375 450.23334Q92.1 449.17084 92.1 446.74896ZM93.17812 446.74896Q93.17812 448.85834 93.67812 449.56146Q94.17812 450.2646 94.89687 450.2646Q95.63125 450.2646 96.11562 449.56146Q96.61562 448.85834 96.61562 446.74896Q96.61562 444.62396 96.11562 443.93646Q95.63125 443.23334 94.88125 443.23334Q94.1625 443.23334 93.725 443.8427Q93.17812 444.62396 93.17812 446.74896Z" fill-rule="nonzero"/><path fill="#000000" d="M68.06875 349.56668L67.02187 349.56668L67.02187 342.84793Q66.63125 343.2073 66.00625 343.5823Q65.39687 343.94168 64.9125 344.11356L64.9125 343.09793Q65.7875 342.67606 66.44375 342.09793Q67.11562 341.50418 67.39687 340.94168L68.06875 340.94168L68.06875 349.56668ZM71.1 345.3323Q71.1 343.80106 71.4125 342.87918Q71.725 341.94168 72.33437 341.44168Q72.95937 340.94168 73.89687 340.94168Q74.58437 340.94168 75.1 341.22293Q75.63125 341.50418 75.975 342.03543Q76.31875 342.55106 76.50625 343.30106Q76.69375 344.05106 76.69375 345.3323Q76.69375 346.84793 76.38125 347.7698Q76.08437 348.69168 75.45937 349.2073Q74.85 349.7073 73.89687 349.7073Q72.6625 349.7073 71.94375 348.81668Q71.1 347.75418 71.1 345.3323ZM72.17812 345.3323Q72.17812 347.44168 72.67812 348.1448Q73.17812 348.84793 73.89687 348.84793Q74.63125 348.84793 75.11562 348.1448Q75.61562 347.44168 75.61562 345.3323Q75.61562 343.2073 75.11562 342.5198Q74.63125 341.81668 73.88125 341.81668Q73.1625 341.81668 72.725 342.42606Q72.17812 343.2073 72.17812 345.3323ZM78.1 345.3323Q78.1 343.80106 78.4125 342.87918Q78.725 341.94168 79.33437 341.44168Q79.95937 340.94168 80.89687 340.94168Q81.58437 340.94168 82.1 341.22293Q82.63125 341.50418 82.975 342.03543Q83.31875 342.55106 83.50625 343.30106Q83.69375 344.05106 83.69375 345.3323Q83.69375 346.84793 83.38125 347.7698Q83.08437 348.69168 82.45937 349.2073Q81.85 349.7073 80.89687 349.7073Q79.6625 349.7073 78.94375 348.81668Q78.1 347.75418 78.1 345.3323ZM79.17812 345.3323Q79.17812 347.44168 79.67812 348.1448Q80.17812 348.84793 80.89687 348.84793Q81.63125 348.84793 82.11562 348.1448Q82.61562 347.44168 82.61562 345.3323Q82.61562 343.2073 82.11562 342.5198Q81.63125 341.81668 80.88125 341.81668Q80.1625 341.81668 79.725 342.42606Q79.17812 343.2073 79.17812 345.3323ZM85.1 345.3323Q85.1 343.80106 85.4125 342.87918Q85.725 341.94168 86.33437 341.44168Q86.95937 340.94168 87.89687 340.94168Q88.58437 340.94168 89.1 341.22293Q89.63125 341.50418 89.975 342.03543Q90.31875 342.55106 90.50625 343.30106Q90.69375 344.05106 90.69375 345.3323Q90.69375 346.84793 90.38125 347.7698Q90.08437 348.69168 89.45937 349.2073Q88.85 349.7073 87.89687 349.7073Q86.6625 349.7073 85.94375 348.81668Q85.1 347.75418 85.1 345.3323ZM86.17812 345.3323Q86.17812 347.44168 86.67812 348.1448Q87.17812 348.84793 87.89687 348.84793Q88.63125 348.84793 89.11562 348.1448Q89.61562 347.44168 89.61562 345.3323Q89.61562 343.2073 89.11562 342.5198Q88.63125 341.81668 87.88125 341.81668Q87.1625 341.81668 86.725 342.42606Q86.17812 343.2073 86.17812 345.3323ZM92.1 345.3323Q92.1 343.80106 92.4125 342.87918Q92.725 341.94168 93.33437 341.44168Q93.95937 340.94168 94.89687 340.94168Q95.58437 340.94168 96.1 341.22293Q96.63125 341.50418 96.975 342.03543Q97.31875 342.55106 97.50625 343.30106Q97.69375 344.05106 97.69375 345.3323Q97.69375 346.84793 97.38125 347.7698Q97.08437 348.69168 96.45937 349.2073Q95.85 349.7073 94.89687 349.7073Q93.6625 349.7073 92.94375 348.81668Q92.1 347.75418 92.1 345.3323ZM93.17812 345.3323Q93.17812 347.44168 93.67812 348.1448Q94.17812 348.84793 94.89687 348.84793Q95.63125 348.84793 96.11562 348.1448Q96.61562 347.44168 96.61562 345.3323Q96.61562 343.2073 96.11562 342.5198Q95.63125 341.81668 94.88125 341.81668Q94.1625 341.81668 93.725 342.42606Q93.17812 343.2073 93.17812 345.3323Z" fill-rule="nonzero"/><path fill="#000000" d="M68.06875 248.15L67.02187 248.15L67.02187 241.43124Q66.63125 241.79062 66.00625 242.16562Q65.39687 242.525 64.9125 242.69687L64.9125 241.68124Q65.7875 241.25937 66.44375 240.68124Q67.11562 240.0875 67.39687 239.525L68.06875 239.525L68.06875 248.15ZM71.1 245.9L72.20937 245.80624Q72.33437 246.61874 72.77187 247.025Q73.225 247.43124 73.86562 247.43124Q74.61562 247.43124 75.14687 246.85312Q75.67812 246.275 75.67812 245.3375Q75.67812 244.43124 75.1625 243.91562Q74.6625 243.38437 73.83437 243.38437Q73.33437 243.38437 72.9125 243.61874Q72.50625 243.85312 72.27187 244.2125L71.2875 244.0875L72.11562 239.68124L76.39687 239.68124L76.39687 240.68124L72.95937 240.68124L72.50625 242.99374Q73.27187 242.44687 74.11562 242.44687Q75.24062 242.44687 76.00625 243.22812Q76.7875 244.00937 76.7875 245.24374Q76.7875 246.4 76.11562 247.25937Q75.2875 248.29062 73.86562 248.29062Q72.69375 248.29062 71.94375 247.63437Q71.20937 246.97812 71.1 245.9ZM78.1 243.91562Q78.1 242.38437 78.4125 241.4625Q78.725 240.525 79.33437 240.025Q79.95937 239.525 80.89687 239.525Q81.58437 239.525 82.1 239.80624Q82.63125 240.0875 82.975 240.61874Q83.31875 241.13437 83.50625 241.88437Q83.69375 242.63437 83.69375 243.91562Q83.69375 245.43124 83.38125 246.35312Q83.08437 247.275 82.45937 247.79062Q81.85 248.29062 80.89687 248.29062Q79.6625 248.29062 78.94375 247.4Q78.1 246.3375 78.1 243.91562ZM79.17812 243.91562Q79.17812 246.025 79.67812 246.72812Q80.17812 247.43124 80.89687 247.43124Q81.63125 247.43124 82.11562 246.72812Q82.61562 246.025 82.61562 243.91562Q82.61562 241.79062 82.11562 241.10312Q81.63125 240.4 80.88125 240.4Q80.1625 240.4 79.725 241.00937Q79.17812 241.79062 79.17812 243.91562ZM85.1 243.91562Q85.1 242.38437 85.4125 241.4625Q85.725 240.525 86.33437 240.025Q86.95937 239.525 87.89687 239.525Q88.58437 239.525 89.1 239.80624Q89.63125 240.0875 89.975 240.61874Q90.31875 241.13437 90.50625 241.88437Q90.69375 242.63437 90.69375 243.91562Q90.69375 245.43124 90.38125 246.35312Q90.08437 247.275 89.45937 247.79062Q88.85 248.29062 87.89687 248.29062Q86.6625 248.29062 85.94375 247.4Q85.1 246.3375 85.1 243.91562ZM86.17812 243.91562Q86.17812 246.025 86.67812 246.72812Q87.17812 247.43124 87.89687 247.43124Q88.63125 247.43124 89.11562 246.72812Q89.61562 246.025 89.61562 243.91562Q89.61562 241.79062 89.11562 241.10312Q88.63125 240.4 87.88125 240.4Q87.1625 240.4 86.725 241.00937Q86.17812 241.79062 86.17812 243.91562ZM92.1 243.91562Q92.1 242.38437 92.4125 241.4625Q92.725 240.525 93.33437 240.025Q93.95937 239.525 94.89687 239.525Q95.58437 239.525 96.1 239.80624Q96.63125 240.0875 96.975 240.61874Q97.31875 241.13437 97.50625 241.88437Q97.69375 242.63437 97.69375 243.91562Q97.69375 245.43124 97.38125 246.35312Q97.08437 247.275 96.45937 247.79062Q95.85 248.29062 94.89687 248.29062Q93.6625 248.29062 92.94375 247.4Q92.1 246.3375 92.1 243.91562ZM93.17812 243.91562Q93.17812 246.025 93.67812 246.72812Q94.17812 247.43124 94.89687 247.43124Q95.63125 247.43124 96.11562 246.72812Q96.61562 246.025 96.61562 243.91562Q96.61562 241.79062 96.11562 241.10312Q95.63125 240.4 94.88125 240.4Q94.1625 240.4 93.725 241.00937Q93.17812 241.79062 93.17812 243.91562Z" fill-rule="nonzero"/><path fill="#000000" d="M69.64687 145.71771L69.64687 146.73334L63.959373 146.73334Q63.959373 146.35834 64.08437 145.99896Q64.30312 145.42084 64.77187 144.85834Q65.25625 144.29584 66.1625 143.56146Q67.56875 142.40521 68.05312 141.73334Q68.55312 141.06146 68.55312 140.46771Q68.55312 139.84271 68.1 139.42084Q67.64687 138.98334 66.92812 138.98334Q66.1625 138.98334 65.70937 139.43646Q65.25625 139.88959 65.24062 140.70209L64.1625 140.59271Q64.27187 139.37396 64.99062 138.74896Q65.725 138.10834 66.95937 138.10834Q68.19375 138.10834 68.9125 138.79584Q69.63125 139.48334 69.63125 140.49896Q69.63125 141.01459 69.4125 141.51459Q69.20937 141.99896 68.70937 142.56146Q68.225 143.10834 67.1 144.06146Q66.14687 144.85834 65.86562 145.15521Q65.6 145.43646 65.42812 145.71771L69.64687 145.71771ZM71.1 142.49896Q71.1 140.96771 71.4125 140.04584Q71.725 139.10834 72.33437 138.60834Q72.95937 138.10834 73.89687 138.10834Q74.58437 138.10834 75.1 138.38959Q75.63125 138.67084 75.975 139.20209Q76.31875 139.71771 76.50625 140.46771Q76.69375 141.21771 76.69375 142.49896Q76.69375 144.01459 76.38125 144.93646Q76.08437 145.85834 75.45937 146.37396Q74.85 146.87396 73.89687 146.87396Q72.6625 146.87396 71.94375 145.98334Q71.1 144.92084 71.1 142.49896ZM72.17812 142.49896Q72.17812 144.60834 72.67812 145.31146Q73.17812 146.01459 73.89687 146.01459Q74.63125 146.01459 75.11562 145.31146Q75.61562 144.60834 75.61562 142.49896Q75.61562 140.37396 75.11562 139.68646Q74.63125 138.98334 73.88125 138.98334Q73.1625 138.98334 72.725 139.59271Q72.17812 140.37396 72.17812 142.49896ZM78.1 142.49896Q78.1 140.96771 78.4125 140.04584Q78.725 139.10834 79.33437 138.60834Q79.95937 138.10834 80.89687 138.10834Q81.58437 138.10834 82.1 138.38959Q82.63125 138.67084 82.975 139.20209Q83.31875 139.71771 83.50625 140.46771Q83.69375 141.21771 83.69375 142.49896Q83.69375 144.01459 83.38125 144.93646Q83.08437 145.85834 82.45937 146.37396Q81.85 146.87396 80.89687 146.87396Q79.6625 146.87396 78.94375 145.98334Q78.1 144.92084 78.1 142.49896ZM79.17812 142.49896Q79.17812 144.60834 79.67812 145.31146Q80.17812 146.01459 80.89687 146.01459Q81.63125 146.01459 82.11562 145.31146Q82.61562 144.60834 82.61562 142.49896Q82.61562 140.37396 82.11562 139.68646Q81.63125 138.98334 80.88125 138.98334Q80.1625 138.98334 79.725 139.59271Q79.17812 140.37396 79.17812 142.49896ZM85.1 142.49896Q85.1 140.96771 85.4125 140.04584Q85.725 139.10834 86.33437 138.60834Q86.95937 138.10834 87.89687 138.10834Q88.58437 138.10834 89.1 138.38959Q89.63125 138.67084 89.975 139.20209Q90.31875 139.71771 90.50625 140.46771Q90.69375 141.21771 90.69375 142.49896Q90.69375 144.01459 90.38125 144.93646Q90.08437 145.85834 89.45937 146.37396Q88.85 146.87396 87.89687 146.87396Q86.6625 146.87396 85.94375 145.98334Q85.1 144.92084 85.1 142.49896ZM86.17812 142.49896Q86.17812 144.60834 86.67812 145.31146Q87.17812 146.01459 87.89687 146.01459Q88.63125 146.01459 89.11562 145.31146Q89.61562 144.60834 89.61562 142.49896Q89.61562 140.37396 89.11562 139.68646Q88.63125 138.98334 87.88125 138.98334Q87.1625 138.98334 86.725 139.59271Q86.17812 140.37396 86.17812 142.49896ZM92.1 142.49896Q92.1 140.96771 92.4125 140.04584Q92.725 139.10834 93.33437 138.60834Q93.95937 138.10834 94.89687 138.10834Q95.58437 138.10834 96.1 138.38959Q96.63125 138.67084 96.975 139.20209Q97.31875 139.71771 97.50625 140.46771Q97.69375 141.21771 97.69375 142.49896Q97.69375 144.01459 97.38125 144.93646Q97.08437 145.85834 96.45937 146.37396Q95.85 146.87396 94.89687 146.87396Q93.6625 146.87396 92.94375 145.98334Q92.1 144.92084 92.1 142.49896ZM93.17812 142.49896Q93.17812 144.60834 93.67812 145.31146Q94.17812 146.01459 94.89687 146.01459Q95.63125 146.01459 96.11562 145.31146Q96.61562 144.60834 96.61562 142.49896Q96.61562 140.37396 96.11562 139.68646Q95.63125 138.98334 94.88125 138.98334Q94.1625 138.98334 93.725 139.59271Q93.17812 140.37396 93.17812 142.49896Z" fill-rule="nonzero"/><path fill="#000000" d="M179.8259 565.4L178.77902 565.4L178.77902 558.6813Q178.3884 559.04065 177.7634 559.41565Q177.15402 559.775 176.66965 559.9469L176.66965 558.9313Q177.54465 558.5094 178.2009 557.9313Q178.87277 557.3375 179.15402 556.775L179.8259 556.775L179.8259 565.4ZM182.85715 561.16565Q182.85715 559.6344 183.16965 558.7125Q183.48215 557.775 184.09152 557.275Q184.71652 556.775 185.65402 556.775Q186.34152 556.775 186.85715 557.0563Q187.3884 557.3375 187.73215 557.8688Q188.0759 558.3844 188.2634 559.1344Q188.4509 559.8844 188.4509 561.16565Q188.4509 562.6813 188.1384 563.60315Q187.84152 564.525 187.21652 565.04065Q186.60715 565.54065 185.65402 565.54065Q184.41965 565.54065 183.7009 564.65Q182.85715 563.5875 182.85715 561.16565ZM183.93527 561.16565Q183.93527 563.275 184.43527 563.97815Q184.93527 564.6813 185.65402 564.6813Q186.3884 564.6813 186.87277 563.97815Q187.37277 563.275 187.37277 561.16565Q187.37277 559.04065 186.87277 558.35315Q186.3884 557.65 185.6384 557.65Q184.91965 557.65 184.48215 558.2594Q183.93527 559.04065 183.93527 561.16565ZM189.85715 561.16565Q189.85715 559.6344 190.16965 558.7125Q190.48215 557.775 191.09152 557.275Q191.71652 556.775 192.65402 556.775Q193.34152 556.775 193.85715 557.0563Q194.3884 557.3375 194.73215 557.8688Q195.0759 558.3844 195.2634 559.1344Q195.4509 559.8844 195.4509 561.16565Q195.4509 562.6813 195.1384 563.60315Q194.84152 564.525 194.21652 565.04065Q193.60715 565.54065 192.65402 565.54065Q191.41965 565.54065 190.7009 564.65Q189.85715 563.5875 189.85715 561.16565ZM190.93527 561.16565Q190.93527 563.275 191.43527 563.97815Q191.93527 564.6813 192.65402 564.6813Q193.3884 564.6813 193.87277 563.97815Q194.37277 563.275 194.37277 561.16565Q194.37277 559.04065 193.87277 558.35315Q193.3884 557.65 192.6384 557.65Q191.91965 557.65 191.48215 558.2594Q190.93527 559.04065 190.93527 561.16565Z" fill-rule="nonzero"/><path fill="#000000" d="M301.78497 564.3844L301.78497 565.4L296.09747 565.4Q296.09747 565.025 296.22247 564.66565Q296.44122 564.0875 296.90997 563.525Q297.39435 562.9625 298.3006 562.22815Q299.70685 561.0719 300.19122 560.4Q300.69122 559.72815 300.69122 559.1344Q300.69122 558.5094 300.2381 558.0875Q299.78497 557.65 299.06622 557.65Q298.3006 557.65 297.84747 558.10315Q297.39435 558.5563 297.37872 559.3688L296.3006 559.2594Q296.40997 558.04065 297.12872 557.41565Q297.8631 556.775 299.09747 556.775Q300.33185 556.775 301.0506 557.4625Q301.76935 558.15 301.76935 559.16565Q301.76935 559.6813 301.5506 560.1813Q301.34747 560.66565 300.84747 561.22815Q300.3631 561.775 299.2381 562.72815Q298.28497 563.525 298.00372 563.8219Q297.7381 564.10315 297.56622 564.3844L301.78497 564.3844ZM303.2381 561.16565Q303.2381 559.6344 303.5506 558.7125Q303.8631 557.775 304.47247 557.275Q305.09747 556.775 306.03497 556.775Q306.72247 556.775 307.2381 557.0563Q307.76935 557.3375 308.1131 557.8688Q308.45685 558.3844 308.64435 559.1344Q308.83185 559.8844 308.83185 561.16565Q308.83185 562.6813 308.51935 563.60315Q308.22247 564.525 307.59747 565.04065Q306.9881 565.54065 306.03497 565.54065Q304.8006 565.54065 304.08185 564.65Q303.2381 563.5875 303.2381 561.16565ZM304.31622 561.16565Q304.31622 563.275 304.81622 563.97815Q305.31622 564.6813 306.03497 564.6813Q306.76935 564.6813 307.25372 563.97815Q307.75372 563.275 307.75372 561.16565Q307.75372 559.04065 307.25372 558.35315Q306.76935 557.65 306.01935 557.65Q305.3006 557.65 304.8631 558.2594Q304.31622 559.04065 304.31622 561.16565ZM310.2381 561.16565Q310.2381 559.6344 310.5506 558.7125Q310.8631 557.775 311.47247 557.275Q312.09747 556.775 313.03497 556.775Q313.72247 556.775 314.2381 557.0563Q314.76935 557.3375 315.1131 557.8688Q315.45685 558.3844 315.64435 559.1344Q315.83185 559.8844 315.83185 561.16565Q315.83185 562.6813 315.51935 563.60315Q315.22247 564.525 314.59747 565.04065Q313.9881 565.54065 313.03497 565.54065Q311.8006 565.54065 311.08185 564.65Q310.2381 563.5875 310.2381 561.16565ZM311.31622 561.16565Q311.31622 563.275 311.81622 563.97815Q312.31622 564.6813 313.03497 564.6813Q313.76935 564.6813 314.25372 563.97815Q314.75372 563.275 314.75372 561.16565Q314.75372 559.04065 314.25372 558.35315Q313.76935 557.65 313.01935 557.65Q312.3006 557.65 311.8631 558.2594Q311.31622 559.04065 311.31622 561.16565Z" fill-rule="nonzero"/><path fill="#000000" d="M416.61905 563.15L417.72842 563.0563Q417.85342 563.8688 418.29092 564.275Q418.74405 564.6813 419.38467 564.6813Q420.13467 564.6813 420.66592 564.10315Q421.19717 563.525 421.19717 562.5875Q421.19717 561.6813 420.68155 561.16565Q420.18155 560.6344 419.35342 560.6344Q418.85342 560.6344 418.43155 560.8688Q418.0253 561.10315 417.79092 561.4625L416.80655 561.3375L417.63467 556.9313L421.91592 556.9313L421.91592 557.9313L418.47842 557.9313L418.0253 560.2438Q418.79092 559.6969 419.63467 559.6969Q420.75967 559.6969 421.5253 560.47815Q422.30655 561.2594 422.30655 562.4938Q422.30655 563.65 421.63467 564.5094Q420.80655 565.54065 419.38467 565.54065Q418.2128 565.54065 417.4628 564.8844Q416.72842 564.22815 416.61905 563.15ZM423.61905 561.16565Q423.61905 559.6344 423.93155 558.7125Q424.24405 557.775 424.85342 557.275Q425.47842 556.775 426.41592 556.775Q427.10342 556.775 427.61905 557.0563Q428.1503 557.3375 428.49405 557.8688Q428.8378 558.3844 429.0253 559.1344Q429.2128 559.8844 429.2128 561.16565Q429.2128 562.6813 428.9003 563.60315Q428.60342 564.525 427.97842 565.04065Q427.36905 565.54065 426.41592 565.54065Q425.18155 565.54065 424.4628 564.65Q423.61905 563.5875 423.61905 561.16565ZM424.69717 561.16565Q424.69717 563.275 425.19717 563.97815Q425.69717 564.6813 426.41592 564.6813Q427.1503 564.6813 427.63467 563.97815Q428.13467 563.275 428.13467 561.16565Q428.13467 559.04065 427.63467 558.35315Q427.1503 557.65 426.4003 557.65Q425.68155 557.65 425.24405 558.2594Q424.69717 559.04065 424.69717 561.16565ZM430.61905 561.16565Q430.61905 559.6344 430.93155 558.7125Q431.24405 557.775 431.85342 557.275Q432.47842 556.775 433.41592 556.775Q434.10342 556.775 434.61905 557.0563Q435.1503 557.3375 435.49405 557.8688Q435.8378 558.3844 436.0253 559.1344Q436.2128 559.8844 436.2128 561.16565Q436.2128 562.6813 435.9003 563.60315Q435.60342 564.525 434.97842 565.04065Q434.36905 565.54065 433.41592 565.54065Q432.18155 565.54065 431.4628 564.65Q430.61905 563.5875 430.61905 561.16565ZM431.69717 561.16565Q431.69717 563.275 432.19717 563.97815Q432.69717 564.6813 433.41592 564.6813Q434.1503 564.6813 434.63467 563.97815Q435.13467 563.275 435.13467 561.16565Q435.13467 559.04065 434.63467 558.35315Q434.1503 557.65 433.4003 557.65Q432.68155 557.65 432.24405 558.2594Q431.69717 559.04065 431.69717 561.16565Z" fill-rule="nonzero"/><path fill="#000000" d="M535.96875 565.4L534.9219 565.4L534.9219 558.6813Q534.53125 559.04065 533.90625 559.41565Q533.2969 559.775 532.8125 559.9469L532.8125 558.9313Q533.6875 558.5094 534.34375 557.9313Q535.0156 557.3375 535.2969 556.775L535.96875 556.775L535.96875 565.4ZM539.5625 565.4L539.5625 564.1969L540.7656 564.1969L540.7656 565.4Q540.7656 566.0563 540.53125 566.4625Q540.2969 566.8844 539.7969 567.10315L539.5 566.65Q539.8281 566.5094 539.9844 566.2125Q540.1406 565.9313 540.1719 565.4L539.5625 565.4ZM542.0 561.16565Q542.0 559.6344 542.3125 558.7125Q542.625 557.775 543.2344 557.275Q543.8594 556.775 544.7969 556.775Q545.4844 556.775 546.0 557.0563Q546.53125 557.3375 546.875 557.8688Q547.21875 558.3844 547.40625 559.1344Q547.59375 559.8844 547.59375 561.16565Q547.59375 562.6813 547.28125 563.60315Q546.9844 564.525 546.3594 565.04065Q545.75 565.54065 544.7969 565.54065Q543.5625 565.54065 542.84375 564.65Q542.0 563.5875 542.0 561.16565ZM543.0781 561.16565Q543.0781 563.275 543.5781 563.97815Q544.0781 564.6813 544.7969 564.6813Q545.53125 564.6813 546.0156 563.97815Q546.5156 563.275 546.5156 561.16565Q546.5156 559.04065 546.0156 558.35315Q545.53125 557.65 544.78125 557.65Q544.0625 557.65 543.625 558.2594Q543.0781 559.04065 543.0781 561.16565ZM549.0 561.16565Q549.0 559.6344 549.3125 558.7125Q549.625 557.775 550.2344 557.275Q550.8594 556.775 551.7969 556.775Q552.4844 556.775 553.0 557.0563Q553.53125 557.3375 553.875 557.8688Q554.21875 558.3844 554.40625 559.1344Q554.59375 559.8844 554.59375 561.16565Q554.59375 562.6813 554.28125 563.60315Q553.9844 564.525 553.3594 565.04065Q552.75 565.54065 551.7969 565.54065Q550.5625 565.54065 549.84375 564.65Q549.0 563.5875 549.0 561.16565ZM550.0781 561.16565Q550.0781 563.275 550.5781 563.97815Q551.0781 564.6813 551.7969 564.6813Q552.53125 564.6813 553.0156 563.97815Q553.5156 563.275 553.5156 561.16565Q553.5156 559.04065 553.0156 558.35315Q552.53125 557.65 551.78125 557.65Q551.0625 557.65 550.625 558.2594Q550.0781 559.04065 550.0781 561.16565ZM556.0 561.16565Q556.0 559.6344 556.3125 558.7125Q556.625 557.775 557.2344 557.275Q557.8594 556.775 558.7969 556.775Q559.4844 556.775 560.0 557.0563Q560.53125 557.3375 560.875 557.8688Q561.21875 558.3844 561.40625 559.1344Q561.59375 559.8844 561.59375 561.16565Q561.59375 562.6813 561.28125 563.60315Q560.9844 564.525 560.3594 565.04065Q559.75 565.54065 558.7969 565.54065Q557.5625 565.54065 556.84375 564.65Q556.0 563.5875 556.0 561.16565ZM557.0781 561.16565Q557.0781 563.275 557.5781 563.97815Q558.0781 564.6813 558.7969 564.6813Q559.53125 564.6813 560.0156 563.97815Q560.5156 563.275 560.5156 561.16565Q560.5156 559.04065 560.0156 558.35315Q559.53125 557.65 558.78125 557.65Q558.0625 557.65 557.625 558.2594Q557.0781 559.04065 557.0781 561.16565Z" fill-rule="nonzero"/><path fill="#000000" d="M657.92786 564.3844L657.92786 565.4L652.24036 565.4Q652.24036 565.025 652.36536 564.66565Q652.5841 564.0875 653.05286 563.525Q653.53723 562.9625 654.4435 562.22815Q655.84973 561.0719 656.3341 560.4Q656.8341 559.72815 656.8341 559.1344Q656.8341 558.5094 656.381 558.0875Q655.92786 557.65 655.2091 557.65Q654.4435 557.65 653.99036 558.10315Q653.53723 558.5563 653.5216 559.3688L652.4435 559.2594Q652.55286 558.04065 653.2716 557.41565Q654.006 556.775 655.24036 556.775Q656.47473 556.775 657.1935 557.4625Q657.91223 558.15 657.91223 559.16565Q657.91223 559.6813 657.6935 560.1813Q657.49036 560.66565 656.99036 561.22815Q656.506 561.775 655.381 562.72815Q654.42786 563.525 654.1466 563.8219Q653.881 564.10315 653.7091 564.3844L657.92786 564.3844ZM659.9435 565.4L659.9435 564.1969L661.1466 564.1969L661.1466 565.4Q661.1466 566.0563 660.91223 566.4625Q660.67786 566.8844 660.17786 567.10315L659.881 566.65Q660.2091 566.5094 660.36536 566.2125Q660.5216 565.9313 660.55286 565.4L659.9435 565.4ZM662.381 561.16565Q662.381 559.6344 662.6935 558.7125Q663.006 557.775 663.61536 557.275Q664.24036 556.775 665.17786 556.775Q665.86536 556.775 666.381 557.0563Q666.91223 557.3375 667.256 557.8688Q667.59973 558.3844 667.78723 559.1344Q667.97473 559.8844 667.97473 561.16565Q667.97473 562.6813 667.66223 563.60315Q667.36536 564.525 666.74036 565.04065Q666.131 565.54065 665.17786 565.54065Q663.9435 565.54065 663.22473 564.65Q662.381 563.5875 662.381 561.16565ZM663.4591 561.16565Q663.4591 563.275 663.9591 563.97815Q664.4591 564.6813 665.17786 564.6813Q665.91223 564.6813 666.3966 563.97815Q666.8966 563.275 666.8966 561.16565Q666.8966 559.04065 666.3966 558.35315Q665.91223 557.65 665.16223 557.65Q664.4435 557.65 664.006 558.2594Q663.4591 559.04065 663.4591 561.16565ZM669.381 561.16565Q669.381 559.6344 669.6935 558.7125Q670.006 557.775 670.61536 557.275Q671.24036 556.775 672.17786 556.775Q672.86536 556.775 673.381 557.0563Q673.91223 557.3375 674.256 557.8688Q674.59973 558.3844 674.78723 559.1344Q674.97473 559.8844 674.97473 561.16565Q674.97473 562.6813 674.66223 563.60315Q674.36536 564.525 673.74036 565.04065Q673.131 565.54065 672.17786 565.54065Q670.9435 565.54065 670.22473 564.65Q669.381 563.5875 669.381 561.16565ZM670.4591 561.16565Q670.4591 563.275 670.9591 563.97815Q671.4591 564.6813 672.17786 564.6813Q672.91223 564.6813 673.3966 563.97815Q673.8966 563.275 673.8966 561.16565Q673.8966 559.04065 673.3966 558.35315Q672.91223 557.65 672.16223 557.65Q671.4435 557.65 671.006 558.2594Q670.4591 559.04065 670.4591 561.16565ZM676.381 561.16565Q676.381 559.6344 676.6935 558.7125Q677.006 557.775 677.61536 557.275Q678.24036 556.775 679.17786 556.775Q679.86536 556.775 680.381 557.0563Q680.91223 557.3375 681.256 557.8688Q681.59973 558.3844 681.78723 559.1344Q681.97473 559.8844 681.97473 561.16565Q681.97473 562.6813 681.66223 563.60315Q681.36536 564.525 680.74036 565.04065Q680.131 565.54065 679.17786 565.54065Q677.9435 565.54065 677.22473 564.65Q676.381 563.5875 676.381 561.16565ZM677.4591 561.16565Q677.4591 563.275 677.9591 563.97815Q678.4591 564.6813 679.17786 564.6813Q679.91223 564.6813 680.3966 563.97815Q680.8966 563.275 680.8966 561.16565Q680.8966 559.04065 680.3966 558.35315Q679.91223 557.65 679.16223 557.65Q678.4435 557.65 678.006 558.2594Q677.4591 559.04065 677.4591 561.16565Z" fill-rule="nonzero"/><path fill="#000000" d="M772.7619 563.15L773.8713 563.0563Q773.9963 563.8688 774.4338 564.275Q774.8869 564.6813 775.5275 564.6813Q776.2775 564.6813 776.8088 564.10315Q777.34 563.525 777.34 562.5875Q777.34 561.6813 776.8244 561.16565Q776.3244 560.6344 775.4963 560.6344Q774.9963 560.6344 774.5744 560.8688Q774.16815 561.10315 773.9338 561.4625L772.9494 561.3375L773.7775 556.9313L778.0588 556.9313L778.0588 557.9313L774.6213 557.9313L774.16815 560.2438Q774.9338 559.6969 775.7775 559.6969Q776.9025 559.6969 777.66815 560.47815Q778.4494 561.2594 778.4494 562.4938Q778.4494 563.65 777.7775 564.5094Q776.9494 565.54065 775.5275 565.54065Q774.35565 565.54065 773.60565 564.8844Q772.8713 564.22815 772.7619 563.15ZM780.3244 565.4L780.3244 564.1969L781.5275 564.1969L781.5275 565.4Q781.5275 566.0563 781.29315 566.4625Q781.0588 566.8844 780.5588 567.10315L780.2619 566.65Q780.59 566.5094 780.7463 566.2125Q780.9025 565.9313 780.9338 565.4L780.3244 565.4ZM782.7619 561.16565Q782.7619 559.6344 783.0744 558.7125Q783.3869 557.775 783.9963 557.275Q784.6213 556.775 785.5588 556.775Q786.2463 556.775 786.7619 557.0563Q787.29315 557.3375 787.6369 557.8688Q787.98065 558.3844 788.16815 559.1344Q788.35565 559.8844 788.35565 561.16565Q788.35565 562.6813 788.04315 563.60315Q787.7463 564.525 787.1213 565.04065Q786.5119 565.54065 785.5588 565.54065Q784.3244 565.54065 783.60565 564.65Q782.7619 563.5875 782.7619 561.16565ZM783.84 561.16565Q783.84 563.275 784.34 563.97815Q784.84 564.6813 785.5588 564.6813Q786.29315 564.6813 786.7775 563.97815Q787.2775 563.275 787.2775 561.16565Q787.2775 559.04065 786.7775 558.35315Q786.29315 557.65 785.54315 557.65Q784.8244 557.65 784.3869 558.2594Q783.84 559.04065 783.84 561.16565ZM789.7619 561.16565Q789.7619 559.6344 790.0744 558.7125Q790.3869 557.775 790.9963 557.275Q791.6213 556.775 792.5588 556.775Q793.2463 556.775 793.7619 557.0563Q794.29315 557.3375 794.6369 557.8688Q794.98065 558.3844 795.16815 559.1344Q795.35565 559.8844 795.35565 561.16565Q795.35565 562.6813 795.04315 563.60315Q794.7463 564.525 794.1213 565.04065Q793.5119 565.54065 792.5588 565.54065Q791.3244 565.54065 790.60565 564.65Q789.7619 563.5875 789.7619 561.16565ZM790.84 561.16565Q790.84 563.275 791.34 563.97815Q791.84 564.6813 792.5588 564.6813Q793.29315 564.6813 793.7775 563.97815Q794.2775 563.275 794.2775 561.16565Q794.2775 559.04065 793.7775 558.35315Q793.29315 557.65 792.54315 557.65Q791.8244 557.65 791.3869 558.2594Q790.84 559.04065 790.84 561.16565ZM796.7619 561.16565Q796.7619 559.6344 797.0744 558.7125Q797.3869 557.775 797.9963 557.275Q798.6213 556.775 799.5588 556.775Q800.2463 556.775 800.7619 557.0563Q801.29315 557.3375 801.6369 557.8688Q801.98065 558.3844 802.16815 559.1344Q802.35565 559.8844 802.35565 561.16565Q802.35565 562.6813 802.04315 563.60315Q801.7463 564.525 801.1213 565.04065Q800.5119 565.54065 799.5588 565.54065Q798.3244 565.54065 797.60565 564.65Q796.7619 563.5875 796.7619 561.16565ZM797.84 561.16565Q797.84 563.275 798.34 563.97815Q798.84 564.6813 799.5588 564.6813Q800.29315 564.6813 800.7775 563.97815Q801.2775 563.275 801.2775 561.16565Q801.2775 559.04065 800.7775 558.35315Q800.29315 557.65 799.54315 557.65Q798.8244 557.65 798.3869 558.2594Q797.84 559.04065 797.84 561.16565Z" fill-rule="nonzero"/><path fill="#000000" d="M893.61163 565.4L892.56476 565.4L892.56476 558.6813Q892.17413 559.04065 891.54913 559.41565Q890.93976 559.775 890.4554 559.9469L890.4554 558.9313Q891.3304 558.5094 891.98663 557.9313Q892.6585 557.3375 892.93976 556.775L893.61163 556.775L893.61163 565.4ZM896.6429 561.16565Q896.6429 559.6344 896.9554 558.7125Q897.2679 557.775 897.87726 557.275Q898.50226 556.775 899.43976 556.775Q900.12726 556.775 900.6429 557.0563Q901.17413 557.3375 901.5179 557.8688Q901.86163 558.3844 902.04913 559.1344Q902.23663 559.8844 902.23663 561.16565Q902.23663 562.6813 901.92413 563.60315Q901.62726 564.525 901.00226 565.04065Q900.3929 565.54065 899.43976 565.54065Q898.2054 565.54065 897.48663 564.65Q896.6429 563.5875 896.6429 561.16565ZM897.721 561.16565Q897.721 563.275 898.221 563.97815Q898.721 564.6813 899.43976 564.6813Q900.17413 564.6813 900.6585 563.97815Q901.1585 563.275 901.1585 561.16565Q901.1585 559.04065 900.6585 558.35315Q900.17413 557.65 899.42413 557.65Q898.7054 557.65 898.2679 558.2594Q897.721 559.04065 897.721 561.16565ZM904.2054 565.4L904.2054 564.1969L905.4085 564.1969L905.4085 565.4Q905.4085 566.0563 905.17413 566.4625Q904.93976 566.8844 904.43976 567.10315L904.1429 566.65Q904.471 566.5094 904.62726 566.2125Q904.7835 565.9313 904.81476 565.4L904.2054 565.4ZM906.6429 561.16565Q906.6429 559.6344 906.9554 558.7125Q907.2679 557.775 907.87726 557.275Q908.50226 556.775 909.43976 556.775Q910.12726 556.775 910.6429 557.0563Q911.17413 557.3375 911.5179 557.8688Q911.86163 558.3844 912.04913 559.1344Q912.23663 559.8844 912.23663 561.16565Q912.23663 562.6813 911.92413 563.60315Q911.62726 564.525 911.00226 565.04065Q910.3929 565.54065 909.43976 565.54065Q908.2054 565.54065 907.48663 564.65Q906.6429 563.5875 906.6429 561.16565ZM907.721 561.16565Q907.721 563.275 908.221 563.97815Q908.721 564.6813 909.43976 564.6813Q910.17413 564.6813 910.6585 563.97815Q911.1585 563.275 911.1585 561.16565Q911.1585 559.04065 910.6585 558.35315Q910.17413 557.65 909.42413 557.65Q908.7054 557.65 908.2679 558.2594Q907.721 559.04065 907.721 561.16565ZM913.6429 561.16565Q913.6429 559.6344 913.9554 558.7125Q914.2679 557.775 914.87726 557.275Q915.50226 556.775 916.43976 556.775Q917.12726 556.775 917.6429 557.0563Q918.17413 557.3375 918.5179 557.8688Q918.86163 558.3844 919.04913 559.1344Q919.23663 559.8844 919.23663 561.16565Q919.23663 562.6813 918.92413 563.60315Q918.62726 564.525 918.00226 565.04065Q917.3929 565.54065 916.43976 565.54065Q915.2054 565.54065 914.48663 564.65Q913.6429 563.5875 913.6429 561.16565ZM914.721 561.16565Q914.721 563.275 915.221 563.97815Q915.721 564.6813 916.43976 564.6813Q917.17413 564.6813 917.6585 563.97815Q918.1585 563.275 918.1585 561.16565Q918.1585 559.04065 917.6585 558.35315Q917.17413 557.65 916.42413 557.65Q915.7054 557.65 915.2679 558.2594Q914.721 559.04065 914.721 561.16565ZM920.6429 561.16565Q920.6429 559.6344 920.9554 558.7125Q921.2679 557.775 921.87726 557.275Q922.50226 556.775 923.43976 556.775Q924.12726 556.775 924.6429 557.0563Q925.17413 557.3375 925.5179 557.8688Q925.86163 558.3844 926.04913 559.1344Q926.23663 559.8844 926.23663 561.16565Q926.23663 562.6813 925.92413 563.60315Q925.62726 564.525 925.00226 565.04065Q924.3929 565.54065 923.43976 565.54065Q922.2054 565.54065 921.48663 564.65Q920.6429 563.5875 920.6429 561.16565ZM921.721 561.16565Q921.721 563.275 922.221 563.97815Q922.721 564.6813 923.43976 564.6813Q924.17413 564.6813 924.6585 563.97815Q925.1585 563.275 925.1585 561.16565Q925.1585 559.04065 924.6585 558.35315Q924.17413 557.65 923.42413 557.65Q922.7054 557.65 922.2679 558.2594Q921.721 559.04065 921.721 561.16565Z" fill-rule="nonzero"/><path fill="#4285f4" d="M334.0 99.166664C334.0 98.61438 334.44772 98.166664 335.0 98.166664L345.0 98.166664C345.55228 98.166664 346.0 98.61438 346.0 99.166664L346.0 109.166664C346.0 109.71895 345.55228 110.166664 345.0 110.166664L335.0 110.166664C334.44772 110.166664 334.0 109.71895 334.0 109.166664Z" fill-rule="nonzero"/><path fill="#1a1a1a" d="M363.85938 110.666664L361.5625 110.666664L361.5625 109.291664Q360.98438 110.08854 360.20312 110.49479Q359.4375 110.885414 358.64062 110.885414Q357.03125 110.885414 355.875 109.58854Q354.73438 108.291664 354.73438 105.96354Q354.73438 103.58854 355.84375 102.354164Q356.96875 101.11979 358.67188 101.11979Q360.23438 101.11979 361.39062 102.416664L361.39062 97.77604L363.85938 97.77604L363.85938 110.666664ZM357.26562 105.791664Q357.26562 107.291664 357.67188 107.96354Q358.26562 108.93229 359.34375 108.93229Q360.20312 108.93229 360.79688 108.21354Q361.39062 107.479164 361.39062 106.041664Q361.39062 104.43229 360.8125 103.729164Q360.23438 103.010414 359.32812 103.010414Q358.45312 103.010414 357.85938 103.71354Q357.26562 104.40104 357.26562 105.791664ZM366.29688 100.072914L366.29688 97.77604L368.76562 97.77604L368.76562 100.072914L366.29688 100.072914ZM366.29688 110.666664L366.29688 101.33854L368.76562 101.33854L368.76562 110.666664L366.29688 110.666664ZM373.65625 110.666664L371.1875 110.666664L371.1875 101.33854L373.48438 101.33854L373.48438 102.666664Q374.0625 101.71354 374.53125 101.416664Q375.01562 101.11979 375.60938 101.11979Q376.45312 101.11979 377.23438 101.58854L376.46875 103.74479Q375.84375 103.33854 375.3125 103.33854Q374.79688 103.33854 374.42188 103.61979Q374.0625 103.90104 373.85938 104.65104Q373.65625 105.40104 373.65625 107.77604L373.65625 110.666664ZM382.57812 101.33854L382.57812 103.30729L380.89062 103.30729L380.89062 107.05729Q380.89062 108.197914 380.9375 108.40104Q380.98438 108.58854 381.15625 108.71354Q381.32812 108.822914 381.57812 108.822914Q381.90625 108.822914 382.5625 108.58854L382.78125 110.510414Q381.90625 110.885414 380.82812 110.885414Q380.15625 110.885414 379.60938 110.666664Q379.07812 110.43229 378.82812 110.072914Q378.57812 109.71354 378.48438 109.104164Q378.40625 108.68229 378.40625 107.36979L378.40625 103.30729L377.26562 103.30729L377.26562 101.33854L378.40625 101.33854L378.40625 99.479164L380.89062 98.041664L380.89062 101.33854L382.57812 101.33854ZM383.125 101.33854L385.75 101.33854L387.98438 107.96354L390.15625 101.33854L392.71875 101.33854L389.42188 110.30729L388.84375 111.947914Q388.51562 112.760414 388.21875 113.18229Q387.92188 113.61979 387.53125 113.885414Q387.15625 114.15104 386.59375 114.291664Q386.04688 114.447914 385.34375 114.447914Q384.625 114.447914 383.9375 114.30729L383.71875 112.36979Q384.29688 112.479164 384.76562 112.479164Q385.625 112.479164 386.03125 111.979164Q386.45312 111.479164 386.67188 110.697914L383.125 101.33854ZM408.4375 104.08854L406.0 104.52604Q405.875 103.80729 405.4375 103.43229Q405.0 103.05729 404.3125 103.05729Q403.39062 103.05729 402.82812 103.697914Q402.28125 104.33854 402.28125 105.83854Q402.28125 107.49479 402.84375 108.18229Q403.40625 108.86979 404.34375 108.86979Q405.04688 108.86979 405.48438 108.46354Q405.9375 108.05729 406.125 107.08854L408.54688 107.49479Q408.17188 109.166664 407.09375 110.02604Q406.03125 110.885414 404.23438 110.885414Q402.1875 110.885414 400.96875 109.58854Q399.75 108.291664 399.75 106.010414Q399.75 103.697914 400.96875 102.416664Q402.1875 101.11979 404.28125 101.11979Q405.98438 101.11979 406.98438 101.854164Q407.98438 102.58854 408.4375 104.08854ZM412.75 97.77604L412.75 102.52604Q413.95312 101.11979 415.60938 101.11979Q416.46875 101.11979 417.14062 101.447914Q417.82812 101.760414 418.17188 102.260414Q418.53125 102.74479 418.65625 103.33854Q418.78125 103.93229 418.78125 105.197914L418.78125 110.666664L416.3125 110.666664L416.3125 105.729164Q416.3125 104.260414 416.17188 103.86979Q416.03125 103.479164 415.67188 103.24479Q415.3125 103.010414 414.78125 103.010414Q414.17188 103.010414 413.6875 103.30729Q413.20312 103.604164 412.96875 104.21354Q412.75 104.80729 412.75 105.99479L412.75 110.666664L410.28125 110.666664L410.28125 97.77604L412.75 97.77604ZM426.70312 107.697914L429.15625 108.104164Q428.6875 109.46354 427.65625 110.18229Q426.64062 110.885414 425.09375 110.885414Q422.65625 110.885414 421.5 109.291664Q420.57812 108.010414 420.57812 106.072914Q420.57812 103.74479 421.78125 102.43229Q423.0 101.11979 424.85938 101.11979Q426.9375 101.11979 428.14062 102.49479Q429.34375 103.86979 429.29688 106.71354L423.10938 106.71354Q423.125 107.80729 423.6875 108.416664Q424.26562 109.02604 425.125 109.02604Q425.70312 109.02604 426.09375 108.71354Q426.5 108.40104 426.70312 107.697914ZM426.84375 105.197914Q426.8125 104.11979 426.28125 103.572914Q425.75 103.010414 425.0 103.010414Q424.1875 103.010414 423.67188 103.604164Q423.14062 104.18229 423.14062 105.197914L426.84375 105.197914ZM440.4375 104.08854L438.0 104.52604Q437.875 103.80729 437.4375 103.43229Q437.0 103.05729 436.3125 103.05729Q435.39062 103.05729 434.82812 103.697914Q434.28125 104.33854 434.28125 105.83854Q434.28125 107.49479 434.84375 108.18229Q435.40625 108.86979 436.34375 108.86979Q437.04688 108.86979 437.48438 108.46354Q437.9375 108.05729 438.125 107.08854L440.54688 107.49479Q440.17188 109.166664 439.09375 110.02604Q438.03125 110.885414 436.23438 110.885414Q434.1875 110.885414 432.96875 109.58854Q431.75 108.291664 431.75 106.010414Q431.75 103.697914 432.96875 102.416664Q434.1875 101.11979 436.28125 101.11979Q437.98438 101.11979 438.98438 101.854164Q439.98438 102.58854 440.4375 104.08854ZM442.20312 110.666664L442.20312 97.77604L444.67188 97.77604L444.67188 104.61979L447.5625 101.33854L450.60938 101.33854L447.42188 104.74479L450.82812 110.666664L448.17188 110.666664L445.82812 106.479164L444.67188 107.68229L444.67188 110.666664L442.20312 110.666664ZM452.29688 100.072914L452.29688 97.77604L454.76562 97.77604L454.76562 100.072914L452.29688 100.072914ZM452.29688 110.666664L452.29688 101.33854L454.76562 101.33854L454.76562 110.666664L452.29688 110.666664ZM465.78125 110.666664L463.3125 110.666664L463.3125 105.90104Q463.3125 104.385414 463.15625 103.947914Q463.0 103.510414 462.64062 103.260414Q462.28125 103.010414 461.78125 103.010414Q461.14062 103.010414 460.625 103.36979Q460.125 103.71354 459.9375 104.291664Q459.75 104.86979 459.75 106.43229L459.75 110.666664L457.28125 110.666664L457.28125 101.33854L459.5625 101.33854L459.5625 102.697914Q460.79688 101.11979 462.64062 101.11979Q463.46875 101.11979 464.14062 101.416664Q464.8125 101.71354 465.15625 102.166664Q465.51562 102.61979 465.64062 103.21354Q465.78125 103.791664 465.78125 104.86979L465.78125 110.666664ZM468.0625 111.27604L470.89062 111.61979Q470.95312 112.11979 471.20312 112.30729Q471.5625 112.572914 472.3125 112.572914Q473.28125 112.572914 473.76562 112.27604Q474.09375 112.08854 474.26562 111.65104Q474.375 111.33854 474.375 110.510414L474.375 109.15104Q473.26562 110.666664 471.57812 110.666664Q469.70312 110.666664 468.59375 109.072914Q467.73438 107.822914 467.73438 105.947914Q467.73438 103.604164 468.85938 102.36979Q470.0 101.11979 471.67188 101.11979Q473.40625 101.11979 474.53125 102.635414L474.53125 101.33854L476.84375 101.33854L476.84375 109.71354Q476.84375 111.354164 476.5625 112.166664Q476.29688 112.99479 475.79688 113.46354Q475.3125 113.93229 474.48438 114.18229Q473.67188 114.447914 472.42188 114.447914Q470.04688 114.447914 469.04688 113.635414Q468.0625 112.822914 468.0625 111.58854Q468.0625 111.46354 468.0625 111.27604ZM470.26562 105.80729Q470.26562 107.291664 470.84375 107.979164Q471.42188 108.666664 472.26562 108.666664Q473.17188 108.666664 473.79688 107.96354Q474.42188 107.260414 474.42188 105.86979Q474.42188 104.416664 473.8125 103.71354Q473.21875 103.010414 472.3125 103.010414Q471.42188 103.010414 470.84375 103.697914Q470.26562 104.385414 470.26562 105.80729ZM488.39062 114.447914L486.6875 114.447914Q485.34375 112.43229 484.64062 110.24479Q483.9375 108.041664 483.9375 105.99479Q483.9375 103.46354 484.8125 101.197914Q485.5625 99.229164 486.73438 97.55729L488.42188 97.55729Q487.20312 100.229164 486.75 102.104164Q486.3125 103.96354 486.3125 106.05729Q486.3125 107.49479 486.57812 109.010414Q486.84375 110.510414 487.3125 111.885414Q487.60938 112.77604 488.39062 114.447914ZM490.10938 101.33854L492.39062 101.33854L492.39062 102.604164Q493.60938 101.11979 495.29688 101.11979Q496.1875 101.11979 496.84375 101.49479Q497.51562 101.854164 497.9375 102.604164Q498.54688 101.854164 499.25 101.49479Q499.96875 101.11979 500.78125 101.11979Q501.8125 101.11979 502.51562 101.541664Q503.23438 101.96354 503.57812 102.760414Q503.84375 103.36979 503.84375 104.697914L503.84375 110.666664L501.35938 110.666664L501.35938 105.33854Q501.35938 103.947914 501.10938 103.541664Q500.76562 103.010414 500.0625 103.010414Q499.53125 103.010414 499.07812 103.33854Q498.625 103.65104 498.42188 104.260414Q498.21875 104.86979 498.21875 106.18229L498.21875 110.666664L495.75 110.666664L495.75 105.55729Q495.75 104.18229 495.60938 103.791664Q495.48438 103.40104 495.20312 103.21354Q494.9375 103.010414 494.45312 103.010414Q493.89062 103.010414 493.42188 103.322914Q492.96875 103.61979 492.76562 104.21354Q492.57812 104.791664 492.57812 106.135414L492.57812 110.666664L490.10938 110.666664L490.10938 101.33854ZM506.42188 108.010414L508.90625 107.61979Q509.0625 108.33854 509.54688 108.71354Q510.03125 109.08854 510.89062 109.08854Q511.85938 109.08854 512.34375 108.74479Q512.65625 108.49479 512.65625 108.08854Q512.65625 107.80729 512.4844 107.61979Q512.2969 107.447914 511.65625 107.291664Q508.67188 106.635414 507.875 106.08854Q506.76562 105.33854 506.76562 103.979164Q506.76562 102.77604 507.71875 101.947914Q508.6875 101.11979 510.6875 101.11979Q512.6094 101.11979 513.53125 101.74479Q514.46875 102.36979 514.8281 103.58854L512.5 104.02604Q512.34375 103.479164 511.92188 103.197914Q511.51562 102.90104 510.73438 102.90104Q509.76562 102.90104 509.34375 103.166664Q509.0625 103.36979 509.0625 103.666664Q509.0625 103.93229 509.3125 104.11979Q509.64062 104.36979 511.60938 104.822914Q513.5781 105.260414 514.375 105.916664Q515.1406 106.572914 515.1406 107.74479Q515.1406 109.02604 514.0625 109.96354Q513.0 110.885414 510.89062 110.885414Q508.98438 110.885414 507.875 110.104164Q506.76562 109.322914 506.42188 108.010414ZM516.6094 114.447914Q517.34375 112.885414 517.6406 112.041664Q517.9375 111.21354 518.1875 110.135414Q518.4375 109.041664 518.5625 108.05729Q518.6875 107.072914 518.6875 106.05729Q518.6875 103.96354 518.2344 102.104164Q517.7969 100.229164 516.59375 97.55729L518.2656 97.55729Q519.59375 99.447914 520.3281 101.572914Q521.0625 103.68229 521.0625 105.86979Q521.0625 107.697914 520.4844 109.80729Q519.8281 112.166664 518.3125 114.447914L516.6094 114.447914Z" fill-rule="nonzero"/><path fill="#ea4335" d="M538.0 99.166664C538.0 98.61438 538.4477 98.166664 539.0 98.166664L549.0 98.166664C549.5523 98.166664 550.0 98.61438 550.0 99.166664L550.0 109.166664C550.0 109.71895 549.5523 110.166664 549.0 110.166664L539.0 110.166664C538.4477 110.166664 538.0 109.71895 538.0 109.166664Z" fill-rule="nonzero"/><path fill="#1a1a1a" d="M561.1406 104.18229L558.8906 103.77604Q559.28125 102.416664 560.2031 101.77604Q561.125 101.11979 562.9375 101.11979Q564.59375 101.11979 565.3906 101.510414Q566.2031 101.90104 566.53125 102.510414Q566.875 103.104164 566.875 104.71354L566.84375 107.604164Q566.84375 108.822914 566.9531 109.416664Q567.0781 109.99479 567.40625 110.666664L564.96875 110.666664Q564.8594 110.416664 564.71875 109.93229Q564.65625 109.71354 564.6406 109.65104Q564.0 110.260414 563.28125 110.572914Q562.5625 110.885414 561.75 110.885414Q560.2969 110.885414 559.46875 110.104164Q558.6406 109.30729 558.6406 108.11979Q558.6406 107.322914 559.0156 106.71354Q559.3906 106.08854 560.0781 105.760414Q560.7656 105.43229 562.0469 105.18229Q563.78125 104.854164 564.4375 104.572914L564.4375 104.322914Q564.4375 103.61979 564.0781 103.322914Q563.7344 103.010414 562.7656 103.010414Q562.1094 103.010414 561.7344 103.27604Q561.3594 103.52604 561.1406 104.18229ZM564.4375 106.18229Q563.96875 106.33854 562.9375 106.55729Q561.90625 106.77604 561.59375 106.99479Q561.1094 107.33854 561.1094 107.86979Q561.1094 108.385414 561.5 108.760414Q561.8906 109.135414 562.4844 109.135414Q563.15625 109.135414 563.75 108.697914Q564.2031 108.36979 564.34375 107.885414Q564.4375 107.55729 564.4375 106.68229L564.4375 106.18229ZM577.8594 110.666664L575.5625 110.666664L575.5625 109.291664Q574.9844 110.08854 574.2031 110.49479Q573.4375 110.885414 572.6406 110.885414Q571.03125 110.885414 569.875 109.58854Q568.7344 108.291664 568.7344 105.96354Q568.7344 103.58854 569.84375 102.354164Q570.96875 101.11979 572.6719 101.11979Q574.2344 101.11979 575.3906 102.416664L575.3906 97.77604L577.8594 97.77604L577.8594 110.666664ZM571.2656 105.791664Q571.2656 107.291664 571.6719 107.96354Q572.2656 108.93229 573.34375 108.93229Q574.2031 108.93229 574.7969 108.21354Q575.3906 107.479164 575.3906 106.041664Q575.3906 104.43229 574.8125 103.729164Q574.2344 103.010414 573.3281 103.010414Q572.4531 103.010414 571.8594 103.71354Q571.2656 104.40104 571.2656 105.791664ZM588.8594 110.666664L586.5625 110.666664L586.5625 109.291664Q585.9844 110.08854 585.2031 110.49479Q584.4375 110.885414 583.6406 110.885414Q582.03125 110.885414 580.875 109.58854Q579.7344 108.291664 579.7344 105.96354Q579.7344 103.58854 580.84375 102.354164Q581.96875 101.11979 583.6719 101.11979Q585.2344 101.11979 586.3906 102.416664L586.3906 97.77604L588.8594 97.77604L588.8594 110.666664ZM582.2656 105.791664Q582.2656 107.291664 582.6719 107.96354Q583.2656 108.93229 584.34375 108.93229Q585.2031 108.93229 585.7969 108.21354Q586.3906 107.479164 586.3906 106.041664Q586.3906 104.43229 585.8125 103.729164Q585.2344 103.010414 584.3281 103.010414Q583.4531 103.010414 582.8594 103.71354Q582.2656 104.40104 582.2656 105.791664ZM596.1875 110.666664L596.1875 97.77604L598.65625 97.77604L598.65625 102.416664Q599.7969 101.11979 601.3594 101.11979Q603.0625 101.11979 604.1719 102.354164Q605.2969 103.58854 605.2969 105.90104Q605.2969 108.291664 604.15625 109.58854Q603.03125 110.885414 601.40625 110.885414Q600.59375 110.885414 599.8125 110.479164Q599.0469 110.072914 598.4844 109.291664L598.4844 110.666664L596.1875 110.666664ZM598.6406 105.791664Q598.6406 107.24479 599.09375 107.947914Q599.7344 108.93229 600.7969 108.93229Q601.625 108.93229 602.1875 108.229164Q602.7656 107.52604 602.7656 106.02604Q602.7656 104.43229 602.1875 103.729164Q601.6094 103.010414 600.7031 103.010414Q599.8125 103.010414 599.21875 103.697914Q598.6406 104.385414 598.6406 105.791664ZM609.1406 104.18229L606.8906 103.77604Q607.28125 102.416664 608.2031 101.77604Q609.125 101.11979 610.9375 101.11979Q612.59375 101.11979 613.3906 101.510414Q614.2031 101.90104 614.53125 102.510414Q614.875 103.104164 614.875 104.71354L614.84375 107.604164Q614.84375 108.822914 614.9531 109.416664Q615.0781 109.99479 615.40625 110.666664L612.96875 110.666664Q612.8594 110.416664 612.71875 109.93229Q612.65625 109.71354 612.6406 109.65104Q612.0 110.260414 611.28125 110.572914Q610.5625 110.885414 609.75 110.885414Q608.2969 110.885414 607.46875 110.104164Q606.6406 109.30729 606.6406 108.11979Q606.6406 107.322914 607.0156 106.71354Q607.3906 106.08854 608.0781 105.760414Q608.7656 105.43229 610.0469 105.18229Q611.78125 104.854164 612.4375 104.572914L612.4375 104.322914Q612.4375 103.61979 612.0781 103.322914Q611.7344 103.010414 610.7656 103.010414Q610.1094 103.010414 609.7344 103.27604Q609.3594 103.52604 609.1406 104.18229ZM612.4375 106.18229Q611.96875 106.33854 610.9375 106.55729Q609.90625 106.77604 609.59375 106.99479Q609.1094 107.33854 609.1094 107.86979Q609.1094 108.385414 609.5 108.760414Q609.8906 109.135414 610.4844 109.135414Q611.15625 109.135414 611.75 108.697914Q612.2031 108.36979 612.34375 107.885414Q612.4375 107.55729 612.4375 106.68229L612.4375 106.18229ZM621.5781 101.33854L621.5781 103.30729L619.8906 103.30729L619.8906 107.05729Q619.8906 108.197914 619.9375 108.40104Q619.9844 108.58854 620.15625 108.71354Q620.3281 108.822914 620.5781 108.822914Q620.90625 108.822914 621.5625 108.58854L621.78125 110.510414Q620.90625 110.885414 619.8281 110.885414Q619.15625 110.885414 618.6094 110.666664Q618.0781 110.43229 617.8281 110.072914Q617.5781 109.71354 617.4844 109.104164Q617.40625 108.68229 617.40625 107.36979L617.40625 103.30729L616.2656 103.30729L616.2656 101.33854L617.40625 101.33854L617.40625 99.479164L619.8906 98.041664L619.8906 101.33854L621.5781 101.33854ZM631.4375 104.08854L629.0 104.52604Q628.875 103.80729 628.4375 103.43229Q628.0 103.05729 627.3125 103.05729Q626.3906 103.05729 625.8281 103.697914Q625.28125 104.33854 625.28125 105.83854Q625.28125 107.49479 625.84375 108.18229Q626.40625 108.86979 627.34375 108.86979Q628.0469 108.86979 628.4844 108.46354Q628.9375 108.05729 629.125 107.08854L631.5469 107.49479Q631.1719 109.166664 630.09375 110.02604Q629.03125 110.885414 627.2344 110.885414Q625.1875 110.885414 623.96875 109.58854Q622.75 108.291664 622.75 106.010414Q622.75 103.697914 623.96875 102.416664Q625.1875 101.11979 627.28125 101.11979Q628.9844 101.11979 629.9844 101.854164Q630.9844 102.58854 631.4375 104.08854ZM635.75 97.77604L635.75 102.52604Q636.9531 101.11979 638.6094 101.11979Q639.46875 101.11979 640.1406 101.447914Q640.8281 101.760414 641.1719 102.260414Q641.53125 102.74479 641.65625 103.33854Q641.78125 103.93229 641.78125 105.197914L641.78125 110.666664L639.3125 110.666664L639.3125 105.729164Q639.3125 104.260414 639.1719 103.86979Q639.03125 103.479164 638.6719 103.24479Q638.3125 103.010414 637.78125 103.010414Q637.1719 103.010414 636.6875 103.30729Q636.2031 103.604164 635.96875 104.21354Q635.75 104.80729 635.75 105.99479L635.75 110.666664L633.28125 110.666664L633.28125 97.77604L635.75 97.77604ZM653.3906 114.447914L651.6875 114.447914Q650.34375 112.43229 649.6406 110.24479Q648.9375 108.041664 648.9375 105.99479Q648.9375 103.46354 649.8125 101.197914Q650.5625 99.229164 651.7344 97.55729L653.4219 97.55729Q652.2031 100.229164 651.75 102.104164Q651.3125 103.96354 651.3125 106.05729Q651.3125 107.49479 651.5781 109.010414Q651.84375 110.510414 652.3125 111.885414Q652.6094 112.77604 653.3906 114.447914ZM655.1094 101.33854L657.3906 101.33854L657.3906 102.604164Q658.6094 101.11979 660.2969 101.11979Q661.1875 101.11979 661.84375 101.49479Q662.5156 101.854164 662.9375 102.604164Q663.5469 101.854164 664.25 101.49479Q664.96875 101.11979 665.78125 101.11979Q666.8125 101.11979 667.5156 101.541664Q668.2344 101.96354 668.5781 102.760414Q668.84375 103.36979 668.84375 104.697914L668.84375 110.666664L666.3594 110.666664L666.3594 105.33854Q666.3594 103.947914 666.1094 103.541664Q665.7656 103.010414 665.0625 103.010414Q664.53125 103.010414 664.0781 103.33854Q663.625 103.65104 663.4219 104.260414Q663.21875 104.86979 663.21875 106.18229L663.21875 110.666664L660.75 110.666664L660.75 105.55729Q660.75 104.18229 660.6094 103.791664Q660.4844 103.40104 660.2031 103.21354Q659.9375 103.010414 659.4531 103.010414Q658.8906 103.010414 658.4219 103.322914Q657.96875 103.61979 657.7656 104.21354Q657.5781 104.791664 657.5781 106.135414L657.5781 110.666664L655.1094 110.666664L655.1094 101.33854ZM671.4219 108.010414L673.90625 107.61979Q674.0625 108.33854 674.5469 108.71354Q675.03125 109.08854 675.8906 109.08854Q676.8594 109.08854 677.34375 108.74479Q677.65625 108.49479 677.65625 108.08854Q677.65625 107.80729 677.4844 107.61979Q677.2969 107.447914 676.65625 107.291664Q673.6719 106.635414 672.875 106.08854Q671.7656 105.33854 671.7656 103.979164Q671.7656 102.77604 672.71875 101.947914Q673.6875 101.11979 675.6875 101.11979Q677.6094 101.11979 678.53125 101.74479Q679.46875 102.36979 679.8281 103.58854L677.5 104.02604Q677.34375 103.479164 676.9219 103.197914Q676.5156 102.90104 675.7344 102.90104Q674.7656 102.90104 674.34375 103.166664Q674.0625 103.36979 674.0625 103.666664Q674.0625 103.93229 674.3125 104.11979Q674.6406 104.36979 676.6094 104.822914Q678.5781 105.260414 679.375 105.916664Q680.1406 106.572914 680.1406 107.74479Q680.1406 109.02604 679.0625 109.96354Q678.0 110.885414 675.8906 110.885414Q673.9844 110.885414 672.875 110.104164Q671.7656 109.322914 671.4219 108.010414ZM681.6094 114.447914Q682.34375 112.885414 682.6406 112.041664Q682.9375 111.21354 683.1875 110.135414Q683.4375 109.041664 683.5625 108.05729Q683.6875 107.072914 683.6875 106.05729Q683.6875 103.96354 683.2344 102.104164Q682.7969 100.229164 681.59375 97.55729L683.2656 97.55729Q684.59375 99.447914 685.3281 101.572914Q686.0625 103.68229 686.0625 105.86979Q686.0625 107.697914 685.4844 109.80729Q684.8281 112.166664 683.3125 114.447914L681.6094 114.447914Z" fill-rule="nonzero"/><path fill="#757575" d="M34.178123 38.834373L39.38125 38.834373L39.38125 52.7875Q39.38125 56.115623 39.584373 57.1Q39.9125 58.678123 41.1625 59.63125Q42.428123 60.584373 44.615623 60.584373Q46.81875 60.584373 47.94375 59.69375Q49.06875 58.7875 49.303123 57.475Q49.5375 56.146873 49.5375 53.084373L49.5375 38.834373L54.740623 38.834373L54.740623 52.365623Q54.740623 57.00625 54.31875 58.928123Q53.896873 60.834373 52.75625 62.1625Q51.615623 63.475 49.709373 64.25625Q47.81875 65.0375 44.771873 65.0375Q41.06875 65.0375 39.1625 64.19375Q37.25625 63.334373 36.146873 61.975Q35.053123 60.615623 34.69375 59.115623Q34.178123 56.896873 34.178123 52.56875L34.178123 38.834373ZM60.0375 45.928123L64.64687 45.928123L64.64687 48.678123Q65.55312 47.271873 67.06875 46.396873Q68.6 45.50625 70.475 45.50625Q73.725 45.50625 75.99062 48.053123Q78.25625 50.6 78.25625 55.1625Q78.25625 59.834373 75.95937 62.428123Q73.67812 65.02187 70.42812 65.02187Q68.88125 65.02187 67.61562 64.4125Q66.36562 63.7875 64.99062 62.303123L64.99062 71.70937L60.0375 71.70937L60.0375 45.928123ZM64.92812 54.94375Q64.92812 58.1 66.17812 59.6Q67.42812 61.1 69.225 61.1Q70.94375 61.1 72.08437 59.725Q73.225 58.334373 73.225 55.19375Q73.225 52.25625 72.0375 50.834373Q70.86562 49.4125 69.13125 49.4125Q67.31875 49.4125 66.11562 50.81875Q64.92812 52.209373 64.92812 54.94375ZM99.30312 64.6L94.725 64.6L94.725 61.85Q93.56875 63.459373 92.00625 64.24062Q90.45937 65.02187 88.88125 65.02187Q85.6625 65.02187 83.36562 62.428123Q81.08437 59.834373 81.08437 55.19375Q81.08437 50.44375 83.30312 47.975Q85.5375 45.50625 88.95937 45.50625Q92.08437 45.50625 94.36562 48.115623L94.36562 38.834373L99.30312 38.834373L99.30312 64.6ZM86.11562 54.865623Q86.11562 57.85 86.94375 59.178123Q88.14687 61.115623 90.2875 61.115623Q91.99062 61.115623 93.17812 59.678123Q94.38125 58.225 94.38125 55.334373Q94.38125 52.115623 93.225 50.709373Q92.06875 49.2875 90.25625 49.2875Q88.49062 49.2875 87.30312 50.69375Q86.11562 52.084373 86.11562 54.865623ZM107.88125 51.63125L103.39687 50.81875Q104.14687 48.115623 105.99062 46.81875Q107.83437 45.50625 111.475 45.50625Q114.7875 45.50625 116.39687 46.2875Q118.02187 47.06875 118.67812 48.271873Q119.33437 49.475 119.33437 52.69375L119.2875 58.459373Q119.2875 60.928123 119.52187 62.1Q119.75625 63.25625 120.4125 64.6L115.52187 64.6Q115.33437 64.1 115.05312 63.146873Q114.92812 62.69375 114.86562 62.553123Q113.6 63.7875 112.1625 64.4125Q110.725 65.02187 109.08437 65.02187Q106.20937 65.02187 104.5375 63.459373Q102.88125 61.896873 102.88125 59.50625Q102.88125 57.9125 103.63125 56.678123Q104.39687 55.44375 105.75625 54.7875Q107.11562 54.115623 109.69375 53.63125Q113.14687 52.975 114.49062 52.4125L114.49062 51.928123Q114.49062 50.50625 113.7875 49.896873Q113.08437 49.2875 111.13125 49.2875Q109.80312 49.2875 109.06875 49.803123Q108.33437 50.31875 107.88125 51.63125ZM114.49062 55.63125Q113.5375 55.94375 111.475 56.396873Q109.42812 56.834373 108.7875 57.25625Q107.81875 57.94375 107.81875 58.990623Q107.81875 60.021873 108.58437 60.7875Q109.36562 61.5375 110.56875 61.5375Q111.89687 61.5375 113.11562 60.6625Q114.00625 59.990623 114.2875 59.021873Q114.49062 58.396873 114.49062 56.615623L114.49062 55.63125ZM133.74063 45.928123L133.74063 49.865623L130.36563 49.865623L130.36563 57.396873Q130.36563 59.678123 130.45938 60.053123Q130.56876 60.428123 130.9125 60.678123Q131.25626 60.928123 131.74063 60.928123Q132.42813 60.928123 133.725 60.44375L134.14688 64.2875Q132.42813 65.02187 130.24063 65.02187Q128.9125 65.02187 127.83437 64.58437Q126.77187 64.13125 126.27187 63.4125Q125.77187 62.69375 125.56875 61.490623Q125.4125 60.63125 125.4125 58.00625L125.4125 49.865623L123.14687 49.865623L123.14687 45.928123L125.4125 45.928123L125.4125 42.225L130.36563 39.334373L130.36563 45.928123L133.74063 45.928123ZM147.99063 58.6625L152.9125 59.490623Q151.975 62.19375 149.9125 63.615623Q147.86563 65.02187 144.80313 65.02187Q139.92813 65.02187 137.58438 61.834373Q135.74063 59.2875 135.74063 55.4125Q135.74063 50.771873 138.1625 48.146873Q140.6 45.50625 144.30313 45.50625Q148.475 45.50625 150.88126 48.25625Q153.2875 51.00625 153.17813 56.69375L140.80313 56.69375Q140.86563 58.88125 142.00626 60.115623Q143.14688 61.334373 144.85 61.334373Q146.00626 61.334373 146.7875 60.709373Q147.58438 60.06875 147.99063 58.6625ZM148.27188 53.6625Q148.225 51.521873 147.1625 50.4125Q146.11563 49.2875 144.6 49.2875Q142.99063 49.2875 141.92813 50.459373Q140.88126 51.646873 140.89688 53.6625L148.27188 53.6625ZM167.225 64.6L167.225 38.834373L175.56876 38.834373Q180.31876 38.834373 181.75626 39.209373Q183.975 39.803123 185.45938 41.740623Q186.95938 43.678123 186.95938 46.75625Q186.95938 49.13125 186.1 50.75625Q185.24063 52.365623 183.9125 53.2875Q182.58438 54.209373 181.20938 54.50625Q179.35 54.88125 175.81876 54.88125L172.42813 54.88125L172.42813 64.6L167.225 64.6ZM172.42813 43.19375L172.42813 50.50625L175.27188 50.50625Q178.35 50.50625 179.38126 50.1Q180.42813 49.69375 181.00626 48.834373Q181.6 47.975 181.6 46.834373Q181.6 45.428123 180.77188 44.521873Q179.94376 43.6 178.67813 43.365623Q177.75626 43.19375 174.94376 43.19375L172.42813 43.19375ZM201.99063 58.6625L206.9125 59.490623Q205.975 62.19375 203.9125 63.615623Q201.86563 65.02187 198.80313 65.02187Q193.92813 65.02187 191.58438 61.834373Q189.74063 59.2875 189.74063 55.4125Q189.74063 50.771873 192.1625 48.146873Q194.6 45.50625 198.30313 45.50625Q202.475 45.50625 204.88126 48.25625Q207.2875 51.00625 207.17813 56.69375L194.80313 56.69375Q194.86563 58.88125 196.00626 60.115623Q197.14688 61.334373 198.85 61.334373Q200.00626 61.334373 200.7875 60.709373Q201.58438 60.06875 201.99063 58.6625ZM202.27188 53.6625Q202.225 51.521873 201.1625 50.4125Q200.11563 49.2875 198.6 49.2875Q196.99063 49.2875 195.92813 50.459373Q194.88126 51.646873 194.89688 53.6625L202.27188 53.6625ZM215.9125 64.6L210.975 64.6L210.975 45.928123L215.56876 45.928123L215.56876 48.584373Q216.74063 46.709373 217.67813 46.115623Q218.61563 45.50625 219.81876 45.50625Q221.50626 45.50625 223.06876 46.44375L221.5375 50.740623Q220.2875 49.94375 219.225 49.94375Q218.17813 49.94375 217.45938 50.521873Q216.74063 51.084373 216.31876 52.584373Q215.9125 54.06875 215.9125 58.834373L215.9125 64.6ZM223.02188 45.928123L225.77188 45.928123L225.77188 44.521873Q225.77188 42.1625 226.27188 41.00625Q226.77188 39.85 228.11563 39.13125Q229.45938 38.396873 231.50626 38.396873Q233.61563 38.396873 235.64688 39.021873L234.975 42.475Q233.80313 42.19375 232.70938 42.19375Q231.63126 42.19375 231.1625 42.69375Q230.70938 43.19375 230.70938 44.615623L230.70938 45.928123L234.39688 45.928123L234.39688 49.81875L230.70938 49.81875L230.70938 64.6L225.77188 64.6L225.77188 49.81875L223.02188 49.81875L223.02188 45.928123ZM237.0375 55.00625Q237.0375 52.5375 238.25626 50.240623Q239.475 47.928123 241.69376 46.725Q243.9125 45.50625 246.6625 45.50625Q250.89688 45.50625 253.6 48.25625Q256.30313 51.00625 256.30313 55.209373Q256.30313 59.44375 253.56876 62.240623Q250.83438 65.02187 246.69376 65.02187Q244.13126 65.02187 241.80313 63.865623Q239.475 62.69375 238.25626 60.459373Q237.0375 58.225 237.0375 55.00625ZM242.1 55.271873Q242.1 58.0375 243.4125 59.521873Q244.74063 60.990623 246.67813 60.990623Q248.61563 60.990623 249.9125 59.521873Q251.225 58.0375 251.225 55.225Q251.225 52.490623 249.9125 51.021873Q248.61563 49.5375 246.67813 49.5375Q244.74063 49.5375 243.4125 51.021873Q242.1 52.490623 242.1 55.271873ZM264.9125 64.6L259.975 64.6L259.975 45.928123L264.56876 45.928123L264.56876 48.584373Q265.74063 46.709373 266.67813 46.115623Q267.61563 45.50625 268.81876 45.50625Q270.50626 45.50625 272.06876 46.44375L270.5375 50.740623Q269.2875 49.94375 268.225 49.94375Q267.17813 49.94375 266.45938 50.521873Q265.74063 51.084373 265.31876 52.584373Q264.9125 54.06875 264.9125 58.834373L264.9125 64.6ZM273.81876 45.928123L278.36563 45.928123L278.36563 48.475Q280.81876 45.50625 284.19376 45.50625Q285.975 45.50625 287.2875 46.25625Q288.61563 46.990623 289.45938 48.475Q290.69376 46.990623 292.11563 46.25625Q293.5375 45.50625 295.1625 45.50625Q297.20938 45.50625 298.63126 46.35Q300.05313 47.178123 300.75626 48.803123Q301.27188 49.990623 301.27188 52.6625L301.27188 64.6L296.33438 64.6L296.33438 53.928123Q296.33438 51.146873 295.81876 50.35Q295.13126 49.2875 293.70938 49.2875Q292.67813 49.2875 291.75626 49.928123Q290.85 50.553123 290.44376 51.771873Q290.0375 52.990623 290.0375 55.63125L290.0375 64.6L285.1 64.6L285.1 54.365623Q285.1 51.646873 284.83438 50.865623Q284.56876 50.06875 284.00626 49.678123Q283.45938 49.2875 282.52188 49.2875Q281.38126 49.2875 280.45938 49.9125Q279.55313 50.521873 279.14688 51.678123Q278.75626 52.834373 278.75626 55.521873L278.75626 64.6L273.81876 64.6L273.81876 45.928123ZM310.88126 51.63125L306.39688 50.81875Q307.14688 48.115623 308.99063 46.81875Q310.83438 45.50625 314.475 45.50625Q317.7875 45.50625 319.39688 46.2875Q321.02188 47.06875 321.67813 48.271873Q322.33438 49.475 322.33438 52.69375L322.2875 58.459373Q322.2875 60.928123 322.52188 62.1Q322.75626 63.25625 323.4125 64.6L318.52188 64.6Q318.33438 64.1 318.05313 63.146873Q317.92813 62.69375 317.86563 62.553123Q316.6 63.7875 315.1625 64.4125Q313.725 65.02187 312.08438 65.02187Q309.20938 65.02187 307.5375 63.459373Q305.88126 61.896873 305.88126 59.50625Q305.88126 57.9125 306.63126 56.678123Q307.39688 55.44375 308.75626 54.7875Q310.11563 54.115623 312.69376 53.63125Q316.14688 52.975 317.49063 52.4125L317.49063 51.928123Q317.49063 50.50625 316.7875 49.896873Q316.08438 49.2875 314.13126 49.2875Q312.80313 49.2875 312.06876 49.803123Q311.33438 50.31875 310.88126 51.63125ZM317.49063 55.63125Q316.5375 55.94375 314.475 56.396873Q312.42813 56.834373 311.7875 57.25625Q310.81876 57.94375 310.81876 58.990623Q310.81876 60.021873 311.58438 60.7875Q312.36563 61.5375 313.56876 61.5375Q314.89688 61.5375 316.11563 60.6625Q317.00626 59.990623 317.2875 59.021873Q317.49063 58.396873 317.49063 56.615623L317.49063 55.63125ZM345.1625 64.6L340.225 64.6L340.225 55.06875Q340.225 52.053123 339.9125 51.1625Q339.6 50.271873 338.88126 49.7875Q338.1625 49.2875 337.1625 49.2875Q335.88126 49.2875 334.86563 49.990623Q333.85 50.69375 333.45938 51.865623Q333.08438 53.021873 333.08438 56.146873L333.08438 64.6L328.14688 64.6L328.14688 45.928123L332.74063 45.928123L332.74063 48.678123Q335.17813 45.50625 338.89688 45.50625Q340.52188 45.50625 341.86563 46.1Q343.225 46.69375 343.9125 47.615623Q344.61563 48.521873 344.88126 49.678123Q345.1625 50.834373 345.1625 52.990623L345.1625 64.6ZM365.45938 51.44375L360.6 52.334373Q360.35 50.865623 359.475 50.13125Q358.6 49.396873 357.225 49.396873Q355.36563 49.396873 354.27188 50.678123Q353.17813 51.94375 353.17813 54.928123Q353.17813 58.25625 354.2875 59.63125Q355.4125 60.990623 357.2875 60.990623Q358.69376 60.990623 359.58438 60.19375Q360.49063 59.396873 360.85 57.44375L365.70938 58.271873Q364.95938 61.615623 362.80313 63.31875Q360.6625 65.02187 357.05313 65.02187Q352.95938 65.02187 350.52188 62.44375Q348.1 59.85 348.1 55.2875Q348.1 50.6625 350.5375 48.084373Q352.975 45.50625 357.14688 45.50625Q360.55313 45.50625 362.56876 46.975Q364.58438 48.44375 365.45938 51.44375ZM379.99063 58.6625L384.9125 59.490623Q383.975 62.19375 381.9125 63.615623Q379.86563 65.02187 376.80313 65.02187Q371.92813 65.02187 369.58438 61.834373Q367.74063 59.2875 367.74063 55.4125Q367.74063 50.771873 370.1625 48.146873Q372.6 45.50625 376.30313 45.50625Q380.475 45.50625 382.88126 48.25625Q385.2875 51.00625 385.17813 56.69375L372.80313 56.69375Q372.86563 58.88125 374.00626 60.115623Q375.14688 61.334373 376.85 61.334373Q378.00626 61.334373 378.7875 60.709373Q379.58438 60.06875 379.99063 58.6625ZM380.27188 53.6625Q380.225 51.521873 379.1625 50.4125Q378.11563 49.2875 376.6 49.2875Q374.99063 49.2875 373.92813 50.459373Q372.88126 51.646873 372.89688 53.6625L380.27188 53.6625Z" fill-rule="nonzero"/></svg>